<svg id="Слой_1" data-name="Слой 1" xmlns="http://www.w3.org/2000/svg" viewBox="0 0 2892.76 1554.65"><defs><style>.cls-1{fill:#ebf3fa;}.cls-2{fill:#82b378;}.cls-3{fill:#a8d29f;}.cls-4{fill:#2c3a64;}.cls-5{fill:#2b478b;}.cls-6{fill:#233862;}.cls-7{fill:#ffb27d;}.cls-8{fill:#ff9843;}.cls-9{fill:#ed985f;}.cls-10{fill:#fff;}.cls-11{fill:#ed7d2b;}.cls-12{fill:#fcecdb;}.cls-13{fill:#efcbab;}.cls-14{fill:#f99746;}.cls-15{opacity:0.5;}.cls-16{fill:#cde0fb;}.cls-17{fill:#b1cff2;}.cls-18{fill:#afcdfb;}.cls-19{fill:#ffad76;}.cls-20{fill:#739af0;}.cls-21{fill:#172b4c;}.cls-22{fill:#5486d6;}.cls-23{fill:#23407a;}.cls-24{fill:#ffbf94;}.cls-25{fill:#2e3552;}</style></defs><title>contact-us</title><path class="cls-1" d="M275.62,1774.12S20.06,1385.44,299.74,964.64c248.15-373.36,639.68-76.48,861.54-456.39C1463.82-9.84,2973.68,192.49,2782.46,989.59c-92.53,385.74,420,399.76,229.33,785.35Z" transform="translate(-162.3 -222.68)"/><path class="cls-2" d="M2183.05,997.43s-46.16-61.19,2.87-95.17c0,0,35.41-18.53,63.13-15.11,0,0-43.55,63.65-31.21,71s43.42-74.43,43.42-74.43,78.13-2.68,102.36,10.89c0,0-69.78,50.19-56,54.29s88.82-44.74,88.82-44.74,71.51,16.82,64.9,60.67-32.36,55.91-43.23,54-73.38-30.29-75.33-21.41,34.75,40.6,61.66,43.65c0,0-54.47,53-87.32,34.69s-34.14-44.23-54.65-55.19-38.53-12.06-30.43-1.68,45.71,22.32,56.45,44.43,20.67,37.19-14,29.73-90.06-36.66-90.73-66.17Z" transform="translate(-162.3 -222.68)"/><path class="cls-2" d="M2425.75,963.82s-195.84-19.82-242.7,33.61c0,0-11.38,28.12-42.51,52.43l-5.38,12.24s36.25-33.74,48.56-35.15C2183.72,1027,2169,956.21,2425.75,963.82Z" transform="translate(-162.3 -222.68)"/><path class="cls-2" d="M2140.54,1049.86s-44.08,28.53-50.49,84l7.61,1.16s17.05-56.74,42.78-77.73S2140.54,1049.86,2140.54,1049.86Z" transform="translate(-162.3 -222.68)"/><path class="cls-3" d="M1956.58,851.14S1854.23,793.82,1902,716c0,0,38.21-47.76,79.15-60,0,0-21.83,116,0,118.72s15-131,15-131,107.81-51.86,150.12-47.77c0,0-66.87,113.27-45,110.54s96.9-117.36,96.9-117.36,110.54-20.47,128.28,45-10.92,98.26-27.3,102.35-121.45,2.73-118.73,16.38,73.7,35.48,113.27,23.2c0,0-43.67,107.81-101,102.35s-75.06-40.94-110.54-43.67-61.41,6.82-43.67,16.38,77.79,3.13,106.44,27.49,51.86,39.38-1.36,50.29-148.75,4.1-167.86-36.84Z" transform="translate(-162.3 -222.68)"/><path class="cls-2" d="M2275.91,654.62s-286.58,92.8-319.33,196.52c0,0,1.36,46.4-27.3,99.62v20.47s30-69.6,46.4-79.15C1975.68,892.08,1911.54,802,2275.91,654.62Z" transform="translate(-162.3 -222.68)"/><path class="cls-2" d="M1929.28,950.76s-44.19,67.11-19,148.81l11.37-3.06s-11-90,12.09-135.24S1929.28,950.76,1929.28,950.76Z" transform="translate(-162.3 -222.68)"/><path class="cls-3" d="M1416.84,880.51S1536,830.1,1493,739.07c0,0-36.08-57-79.46-75.39,0,0,9.87,129.76-14.39,130.11s-.57-145.39-.57-145.39-111.86-69.9-158.72-70.54c0,0,59.55,132.23,36,126.6s-92-140.36-92-140.36-118.65-35.83-146,33.81.05,109,17.5,115.47,132.77,17.71,128.13,32.33-85.06,29.95-126.94,11.7c0,0,34.79,123.43,98.26,124.4S1242,846,1281.24,847.35s66.47,14.92,45.87,23.24-85.62-6-120,17.23-61.6,36.86-4.6,55.28,162.51,22.51,188.41-20Z" transform="translate(-162.3 -222.68)"/><path class="cls-2" d="M1090.71,626.46s302.81,136.42,326.13,254c0,0-7.12,50.68,17.84,112.48l-2.49,22.43s-24.46-79.91-41.25-92.36C1390.94,923.06,1472.14,832.13,1090.71,626.46Z" transform="translate(-162.3 -222.68)"/><path class="cls-2" d="M1434.68,993s40.29,78.9,2.78,165.38l-12.09-4.73s23-97.27,3.15-149.67S1434.68,993,1434.68,993Z" transform="translate(-162.3 -222.68)"/><path class="cls-2" d="M1172.53,1173c-21-30.36-23.39-58.64-23.39-58.64s58.24-41.82,23.9-85.79c0,0-26.47-26.4-52.18-31,0,0,21.2,69,8.13,72.11s-18.09-78.55-18.09-78.55-69-24.12-94.44-18.73c0,0,48.36,64.22,34.92,64.05s-66.89-64.65-66.89-64.65-68.53-4.87-74.83,36.13,13.36,58.93,23.59,60.3,74-6.65,73.23,1.82-42.33,26.59-67.21,21.84c0,0,33.9,62.5,68.34,55.26s42.79-30,64.15-34.09,37.77-.06,27.64,7-47,7.22-62.77,24-28.8,27.46,4.28,30.45,90.62-7.69,99.42-33.86c.39-1.15.75-2.23,1.1-3.28a13.27,13.27,0,0,1-1.1,3.28c6.36,2.8,17.17,18.38,24.81,30.41,1.13,2.07,2.87,4.91,5.4,8.74h0c1,1.75,1.89,3.18,2.47,4.18,14.61,27.22,14.12,77.14,14.12,77.14l7.12,1.07C1204,1210.78,1172.53,1173,1172.53,1173Z" transform="translate(-162.3 -222.68)"/><path class="cls-4" d="M783.27,474.06c-.58-3.14-8-36.86-60.13-31.11,0,0,26-.66,32,9.92,0,0-19.39-11.34-32.9-4.83S704,480.56,705.12,488.72,717.9,522,727.21,523a27.63,27.63,0,0,0,10.88-1.56,125,125,0,0,0-5.17,13.45c-14.54,45.52,12.85,84,29.72,76.84,10.82-4.58,16.79,14.15,16.79,14.15l96.41-104.3S823.66,444.34,783.27,474.06Z" transform="translate(-162.3 -222.68)"/><path class="cls-5" d="M908.87,1730.28,885.42,1739S783.57,1597.76,771,1473.47c-2.24-22.19-1.49-43.68,3.35-63.54,0,0-1-5.68-2.74-15.73-.8-4.69-1.8-10.34-2.93-16.81-3.31-19-7.87-44.93-13.07-74.49-12-68-27.51-155-39.57-218.9l6.31-2,68.37-22,14.13-44.87,50.9-13.4s11.37,22.24,21.54,127.32c1.87,13.79,3.58,29,4.86,45.47a900.2,900.2,0,0,1-4.84,184.07q-3.51,27.4-8.94,56.5c-2.68,14.2-3.09,33.56-2,55.78C871.57,1572.39,908.87,1730.28,908.87,1730.28Z" transform="translate(-162.3 -222.68)"/><path class="cls-6" d="M882.18,1174.44,771.64,1394.2c-.8-4.69-1.8-10.34-2.93-16.81-3.31-19-7.87-44.93-13.07-74.49-12-68-27.51-155-39.57-218.9l6.31-2,68.37-22,14.13-44.87,50.9-13.4s11.37,22.24,21.54,127.32C879.19,1142.76,880.9,1158,882.18,1174.44Z" transform="translate(-162.3 -222.68)"/><path class="cls-5" d="M833.55,1029.85,831,1007.9c-42.87,11.39-157.41-31.82-157.41-31.82s-41.53,36.51-36.08,124c2.66,42.71,7.52,224.22,12.6,277.92,1.83,19.47,3.44,33.32,4.1,38.86a.11.11,0,0,1,0,0,7.74,7.74,0,0,1-1.24,4.76,251.61,251.61,0,0,0-18.75,39.41c-49.83,132.81,7.68,296.36,7.68,296.36l14.92-6s32.73-182,59.33-262.42c4.51-13.64,8.84-24.36,12.8-30.76,11.57-18.66,22.3-49.15,32-85.42,18.4-68.57,33.22-157.76,43.08-226.61C805.43,1146.29,833.55,1029.85,833.55,1029.85Z" transform="translate(-162.3 -222.68)"/><path class="cls-7" d="M902.68,854a27.58,27.58,0,0,0,2.64,2.52c36.64,34.15,86,64.34,112.39,71,17.36,4.44,55.65-1.51,87.45-8.05,21.18-4.17,39.63-8.8,47.24-10.6,2.42-.57,3.78-1,3.78-1l-3.32-21.44s-19.06-1.51-42.74-4.18c-33-3.88-74.79-9.83-85.5-16.16-24.84-14.76-68.43-76.67-103.4-115.59-1.83-2.12-3.65-4.16-5.45-6.16-1.31-1.47-2.63-2.9-3.94-4.31a4.83,4.83,0,0,0-1-1c-1.61-1.55-3-3-4.29-4.25-.06-.15-.28-.27-.51-.4-6.21-6.24-17.11-13.82-17.11-13.82-6.11-3.48-11.15-4.15-14.69-1.18a56.2,56.2,0,0,0-9.05,12.9c-.95,1.76-1.89,3.71-2.78,5.82a13.44,13.44,0,0,0-1.47,3.63,74,74,0,0,0-4.74,29,91.53,91.53,0,0,0,5.75,28.68C868,816.6,883.46,835.77,902.68,854Z" transform="translate(-162.3 -222.68)"/><path class="cls-7" d="M870.77,763.52c-12.42,8.11-27.9,14.65-47.2,18.54-72.36,14.58-98.2-47-107.37-89a62,62,0,0,1,24.57-6.8c5.21-.46,10.69-.72,15.22-.81,8.25-6,21-30.93,24.76-70.14l3.35,1,56.22,17.1s-3.1,17.94-4.85,34.93c-1.36,13.29-1.87,26,.56,29.21,4.4,1.08,7,1.78,7,1.78l0,0A364.92,364.92,0,0,1,870.77,763.52Z" transform="translate(-162.3 -222.68)"/><path class="cls-8" d="M896,808.72c-.33,1.55-.74,3-1.19,4.61-12.7,42.47-23,212.24-23,212.24,6.73,21.22-116.64,25.57-184.68,15.76-24.74-3.55-42.16-9-43.35-16.15-12.18-27.44,17.61-78.69,34.82-104.74A66.45,66.45,0,0,0,689.5,881.6c-.51-13.46-1.66-26.53-3.07-38.77-2.63-23.09-6.15-43.25-8-57.52h0c3.57-3.56,7.06-6.86,10.31-10,4.94-4.84,9.28-9.32,12.33-13.67,3.35-4.74,5.21-9.37,4.8-14.22a71.1,71.1,0,0,0-1.9-11.06c-.43-1.74-.91-3.46-1.43-5.19-5.52-18.1-15.69-33.76-15.69-33.76,18.42-10.77,53.9-11.1,53.9-11.1s.25,1.94.69,5.11c1.73,12.72,6.59,45.35,11.56,50.94,6.21,7,104.32,27.13,107.74,16,3.36-11-16.9-57.14-17.66-58.89a.15.15,0,0,1,0-.06c31.42,7.47,45.07,15.91,45.69,16.41h0C871.67,730.7,904.91,768,896,808.72Z" transform="translate(-162.3 -222.68)"/><path class="cls-9" d="M840.33,633.46s-3.12,17.93-4.86,34.93c-32-4.12-46-35.1-51.37-52Z" transform="translate(-162.3 -222.68)"/><path class="cls-7" d="M849.44,650.64s-76.08-6.35-71.39-53.66-2-80,46.79-78,56.4,21,58.68,37.22S869.34,651.07,849.44,650.64Z" transform="translate(-162.3 -222.68)"/><path class="cls-4" d="M883.89,529.72c-10.31-15.41-19.5-13.17-24.9-9.39-39.22-27-69.35,4.08-69.35,4.08-8.48,33.44-34.9,50.43-34.9,50.43s13,9.94,45.72,4.93c10-1.53,19.39-7.59,27.63-15.25a178.16,178.16,0,0,1-34.22,34.19c39.88-13.8,60.5-65.29,62.59-70.74,4.21,4.63,12.45,14.59,14.35,23.73,2.58,12.43,1.8,37.4,9.11,37.28C879.92,589,899.36,552.82,883.89,529.72Z" transform="translate(-162.3 -222.68)"/><path class="cls-7" d="M1223.31,883.54c-7.61,7.25-15.31,25.37-38.74,25a335.8,335.8,0,0,0-41.83,2.75c-3.19.56-5,.78-5,.78l-.83-26.55a4.39,4.39,0,0,0,1.1-.09c5.66-.85,34.4-5.27,45.78-12.82,12.78-8.56,42.64-.62,42.64-.62S1231,876.43,1223.31,883.54Z" transform="translate(-162.3 -222.68)"/><path class="cls-6" d="M728.67,1769.65H610.57s-2.83-18,3.33-31.65c5.92-13.11,15.17-19.06,13-34.92,7.5,7.73,19.73,16.38,36.81,14.09,2.09,3.39,13.5,21.54,20.49,26.56C691.88,1749.27,726.29,1747.3,728.67,1769.65Z" transform="translate(-162.3 -222.68)"/><path class="cls-6" d="M982.25,1769.65H864.15s-4.42-18.84,3.34-31.65c6.86-11.35,4.23-17.81-.85-27.19a46,46,0,0,0,19.89,3.75c5.88-.34,12.1-3,17.56-6.18,5.08,5.79,26.85,30.46,33.65,35.35C945.46,1749.27,979.87,1747.3,982.25,1769.65Z" transform="translate(-162.3 -222.68)"/><path class="cls-10" d="M831.29,623.28s1.07,6.26,16.48,6.28c0,0,12.94,0,13-6.8C860.74,622.76,848.55,617.15,831.29,623.28Z" transform="translate(-162.3 -222.68)"/><path class="cls-11" d="M703.24,924c-4.67,29.6-26.07,89-16.12,117.33-24.74-3.55-42.16-9-43.35-16.15-12.18-27.44,17.61-78.69,34.82-104.74A66.45,66.45,0,0,0,689.5,881.6c-.51-13.46-1.66-26.53-3.07-38.77C686.43,842.83,708.21,892.56,703.24,924Z" transform="translate(-162.3 -222.68)"/><path class="cls-8" d="M870.42,724.36c.82,26.3,19.84,98.5,24.35,89,5.16-10.87,25.13-52.19,34.51-53.71-.49-1.91-38.88-44.35-40.56-43.86C888.72,715.76,878.29,718.94,870.42,724.36Z" transform="translate(-162.3 -222.68)"/><path class="cls-7" d="M689.33,1097.44l-19.6,13s-5-6.19-12.8-16.1c-2.35-3-3.61-4.78-3.61-4.78-6.21-8-13.43-17.82-21.32-28.46l-.13-.13c-13.24-18.58-27.77-39.72-38.89-58.83-7.73-13.54-13.75-26.09-16.69-35.95a20.85,20.85,0,0,1-.7-3c-5.75-25,4.79-74.66,21.58-123.11,2.31-6.69,4.75-13.28,7.08-19.73,8.93-23.76,19-46.08,29-64.13,5.91-10.85,11.81-20.31,17.48-27.37a80.93,80.93,0,0,1,5.82-6.94c1.08-1.22,2.17-2.41,3.23-3.53,11.77,1,36.46,5.65,54.79,26.82-.31,1.11-.64,2.22-1,3.36-7.41,23.9-18.86,53.23-30.72,82-6.45,15.79-13,31.46-18.83,46.2-3.67,8.81-7,17.21-10,25-5.64,14.86-9.82,27.22-11.49,35.88-1.12,5.62.48,16.2,3.52,29.2,5.2,22.65,15.1,53.16,24.3,79.07,3.77,10.81,7.47,20.87,10.57,29.21C686,1088.62,689.33,1097.44,689.33,1097.44Z" transform="translate(-162.3 -222.68)"/><path class="cls-8" d="M697.89,820.07c-19.57-29.54-75.66-42.25-75.66-42.25C653.88,677.39,737,686.7,737,686.7S706.75,791.18,697.89,820.07Z" transform="translate(-162.3 -222.68)"/><path class="cls-7" d="M669.73,1110.48s5.15,7.6,5.73,13.06,5.46,23.59,11.79,29.35S708,1170.15,710,1168.42s7.84-15.29,2.44-24.88c-2.43-4.33-5.74-16.4-10.11-19.32-5.29-3.55-13-26.78-13-26.78Z" transform="translate(-162.3 -222.68)"/><path class="cls-7" d="M689.41,1100.39s15.58,7.91,17.69,14.24,10.81,19.09,9.92,20.57-14.5-7.06-19.1-14.92S689.41,1100.39,689.41,1100.39Z" transform="translate(-162.3 -222.68)"/><path class="cls-11" d="M1060.19,1026.79l570.6-341.6a99.48,99.48,0,0,1,102.21,0l570.6,341.6v556.76l-1243.41-62.34Z" transform="translate(-162.3 -222.68)"/><rect class="cls-12" x="1004.92" y="557.43" width="1029.35" height="889.56"/><circle class="cls-13" cx="1209.22" cy="818.92" r="10.58" transform="translate(-383.64 302.41) rotate(-22.5)"/><path class="cls-13" d="M2143.35,818.92a10.59,10.59,0,1,1,10.58,10.58A10.58,10.58,0,0,1,2143.35,818.92Z" transform="translate(-162.3 -222.68)"/><rect class="cls-13" x="1046.92" y="595.09" width="944.71" height="2.3"/><rect class="cls-13" x="1045.77" y="592.04" width="2.3" height="944.71"/><rect class="cls-13" x="1990.85" y="592.04" width="2.3" height="944.71"/><polygon class="cls-8" points="2141.29 802.58 2141.29 1546.97 897.89 1546.97 897.89 802.58 1519.59 1174.78 2141.29 802.58"/><path class="cls-11" d="M1060.19,1769.65l569.51-408.3a89.56,89.56,0,0,1,104.38,0l569.52,408.3Z" transform="translate(-162.3 -222.68)"/><path class="cls-13" d="M1871.69,903.35h-375.3a9.94,9.94,0,0,1-9.91-9.91h0a9.94,9.94,0,0,1,9.91-9.91h375.3a9.94,9.94,0,0,1,9.91,9.91h0A9.94,9.94,0,0,1,1871.69,903.35Z" transform="translate(-162.3 -222.68)"/><path class="cls-13" d="M1968.36,943.1H1399.72a9.94,9.94,0,0,1-9.91-9.91h0a9.93,9.93,0,0,1,9.91-9.9h568.64a9.93,9.93,0,0,1,9.91,9.9h0A9.94,9.94,0,0,1,1968.36,943.1Z" transform="translate(-162.3 -222.68)"/><path class="cls-13" d="M1894.62,1066.41H1483.19a7.19,7.19,0,0,1-7.17-7.17h0a7.19,7.19,0,0,1,7.17-7.17h411.43a7.2,7.2,0,0,1,7.17,7.17h0A7.2,7.2,0,0,1,1894.62,1066.41Z" transform="translate(-162.3 -222.68)"/><path class="cls-13" d="M1524.5,1103.85h-116a7.2,7.2,0,0,1-7.17-7.17h0a7.2,7.2,0,0,1,7.17-7.17h116a7.2,7.2,0,0,1,7.17,7.17h0A7.2,7.2,0,0,1,1524.5,1103.85Z" transform="translate(-162.3 -222.68)"/><path class="cls-13" d="M1699.46,1103.85H1559.3a7.19,7.19,0,0,1-7.16-7.17h0a7.19,7.19,0,0,1,7.16-7.17h140.16a7.2,7.2,0,0,1,7.17,7.17h0A7.2,7.2,0,0,1,1699.46,1103.85Z" transform="translate(-162.3 -222.68)"/><path class="cls-13" d="M1969.31,1103.85H1727a7.2,7.2,0,0,1-7.17-7.17h0a7.2,7.2,0,0,1,7.17-7.17h242.29a7.2,7.2,0,0,1,7.17,7.17h0A7.2,7.2,0,0,1,1969.31,1103.85Z" transform="translate(-162.3 -222.68)"/><path class="cls-13" d="M1700.38,1147.38H1475a7.18,7.18,0,0,1-7.16-7.17h0A7.19,7.19,0,0,1,1475,1133h225.36a7.2,7.2,0,0,1,7.17,7.17h0A7.19,7.19,0,0,1,1700.38,1147.38Z" transform="translate(-162.3 -222.68)"/><path class="cls-13" d="M1902.78,1147.38h-177.5a7.18,7.18,0,0,1-7.16-7.17h0a7.19,7.19,0,0,1,7.16-7.17h177.5a7.2,7.2,0,0,1,7.17,7.17h0A7.19,7.19,0,0,1,1902.78,1147.38Z" transform="translate(-162.3 -222.68)"/><path class="cls-14" d="M1763.69,1235.9a285.73,285.73,0,0,1-43.34,29.19c1.29-4,2.37-8.25,2.17-12-.27-5.16-4.39-7.42-8.51-9.56-1-.53-2-1.09-2.92-1.65a5.26,5.26,0,0,0,1.37-6.12c-1.74-3.9-6.62-3.27-8.27.34a6.26,6.26,0,0,0-.56,2,4.86,4.86,0,0,1-1.61-1.27c2.51-4.69,4.88-9.46,7.06-14.34a2.67,2.67,0,0,0-1-3.06,8.37,8.37,0,0,0-11.47,1.58c-3.45,4.07-2.58,10.26-.93,14.88.12.33.25.65.38,1q-4.8,8.65-10.41,16.85l-1.05-1.05a22.33,22.33,0,0,1-2.91-3.5,50.71,50.71,0,0,0,3.21-14c.18-2.17-2-3.24-3.8-2.57a11.29,11.29,0,0,0-7.08,12.21,15.23,15.23,0,0,0,1.64,5.11,46.87,46.87,0,0,1-4,7.06,2.48,2.48,0,0,0,.9,3.67c-1.64,5.47-3.86,11.08-7.64,15-3.09,3.22-8.85,5.67-12.61,1.84-2.38-2.42-2.68-6.47-3-9.67a178.47,178.47,0,0,1-1.11-24,36.5,36.5,0,0,1,1.83-11.13c.8-2.21,1.91-5.56,3-1.75.52,1.86-.2,4.76-.39,6.66-.34,3.39,4.92,3.78,5.26.4.4-4,2.18-12.32-2.32-14.81-3.73-2.07-7.16.9-8.89,4-6.21,11.15-3.74,26.48-2.8,38.6.74,9.67,4.36,21.54,16.71,18.46,11.62-2.89,15.89-17.54,18.56-27.62a2.6,2.6,0,0,0-.08-1.69l.14-.25,1.46,1.45c.68.6,1.34,1.25,2,1.91q-1.83,2.54-3.74,5a2.68,2.68,0,0,0,.21,3.22c3.91,4.7,10.94,1.21,10.8-4.57a8.74,8.74,0,0,0-.88-3.62q5.51-7.92,10.28-16.3a8.31,8.31,0,0,0,6.34,2.54l.53,0a19.7,19.7,0,0,0,4.6,3.49c1.5.85,3.23,1.37,4.58,2.47,2.5,2,1.76,4.39,1.21,7.3a115.29,115.29,0,0,1-3.07,11.39c-5.31,3-10.55,6.93-12.34,13-1.63,5.58-.18,11.45,4.6,14.91a2.67,2.67,0,0,0,4-1.31c3-7.37,5.7-14.86,8-22.47.07-.24.15-.49.23-.73,4.69-2.67,9.6-5,14.23-7.76a269.88,269.88,0,0,0,35-24.74C1769.79,1237.69,1766.3,1233.72,1763.69,1235.9Zm-64.13-7c0-2.12,1.07-6,3.5-5.94-1.1,2.38-2.23,4.74-3.42,7.07C1699.6,1229.62,1699.57,1229.24,1699.56,1228.87Zm6.7,61c-2.22-4.16,1-9.29,4.59-12.68C1709.43,1281.43,1707.89,1285.66,1706.26,1289.85Z" transform="translate(-162.3 -222.68)"/><g class="cls-15"><polygon class="cls-16" points="1497.37 192.12 1550.97 310.38 1353.43 399.91 1299.83 281.65 1425.4 296.01 1497.37 192.12"/><path class="cls-17" d="M1462.13,504.33l197.54-89.54-59.06,99.54a21.92,21.92,0,0,1-22.67,10.41Z" transform="translate(-162.3 -222.68)"/></g><g class="cls-15"><polygon class="cls-16" points="336.03 964.33 364.23 1039.94 237.92 1087.04 209.72 1011.42 286.97 1025.68 336.03 964.33"/><path class="cls-17" d="M372,1234.1l126.3-47.1-40.86,59.21A13.65,13.65,0,0,1,443,1251.7Z" transform="translate(-162.3 -222.68)"/></g><g class="cls-15"><polygon class="cls-16" points="2499.01 514.27 2459.39 662.75 2211.38 596.56 2251 448.08 2355.19 555.42 2499.01 514.27"/><path class="cls-17" d="M2413.3,670.76l248,66.18-128.73,46.85a26,26,0,0,1-28.58-7.48Z" transform="translate(-162.3 -222.68)"/></g><path class="cls-18" d="M443.91,1521.34h0c-6,0-11.81-.1-17.29-.25a1.15,1.15,0,0,1-1.12-1.19,1.14,1.14,0,0,1,1.18-1.11c5.46.15,11.26.23,17.23.25a1.14,1.14,0,0,1,1.15,1.15A1.16,1.16,0,0,1,443.91,1521.34Zm17.28-.13a1.15,1.15,0,0,1,0-2.3c5.53-.1,11.34-.24,17.27-.44a1.13,1.13,0,0,1,1.19,1.11,1.15,1.15,0,0,1-1.12,1.19c-5.94.2-11.76.34-17.3.44Zm-51.78-.87h-.07c-6.09-.37-11.89-.84-17.26-1.41a1.15,1.15,0,1,1,.25-2.29c5.33.57,11.09,1,17.15,1.4a1.15,1.15,0,0,1-.07,2.3Zm86.34-.26a1.15,1.15,0,0,1-.06-2.3c5.54-.25,11.35-.56,17.25-.9a1.17,1.17,0,0,1,1.22,1.09,1.15,1.15,0,0,1-1.09,1.21c-5.91.34-11.72.65-17.27.9Zm34.51-2a1.15,1.15,0,0,1-.08-2.3q8.51-.57,17.23-1.24a1.15,1.15,0,0,1,.17,2.3q-8.73.66-17.24,1.24Zm-155.14-1.56a.75.75,0,0,1-.21,0,135.86,135.86,0,0,1-16.92-4,1.15,1.15,0,1,1,.7-2.19,132.55,132.55,0,0,0,16.63,4,1.15,1.15,0,0,1-.2,2.28Zm189.6-1.06a1.15,1.15,0,0,1-1.14-1.06,1.14,1.14,0,0,1,1-1.24q8.5-.72,17.2-1.51a1.15,1.15,0,0,1,.21,2.3q-8.7.78-17.22,1.5Zm34.42-3.13a1.15,1.15,0,0,1-.11-2.29q8.54-.82,17.19-1.72a1.15,1.15,0,0,1,.23,2.29q-8.66.88-17.2,1.72Zm34.38-3.52a1.15,1.15,0,0,1-.12-2.3q8.54-.91,17.16-1.9a1.15,1.15,0,1,1,.26,2.29q-8.62,1-17.18,1.9Zm-290.73-3.61a1.17,1.17,0,0,1-.68-.22,21.91,21.91,0,0,1-7.15-8.16,52.14,52.14,0,0,1-2.56-6.51,1.15,1.15,0,1,1,2.2-.68,46.77,46.77,0,0,0,2.44,6.2,19.68,19.68,0,0,0,6.43,7.29,1.15,1.15,0,0,1,.25,1.61A1.13,1.13,0,0,1,342.79,1505.22Zm325.07-.26a1.15,1.15,0,0,1-.13-2.3l17.15-2a1.15,1.15,0,1,1,.27,2.28q-8.61,1-17.16,2Zm34.3-4.17a1.15,1.15,0,0,1-.14-2.29q8.52-1.07,17.08-2.17a1.15,1.15,0,0,1,.29,2.29q-8.55,1.1-17.08,2.17Zm34.19-4.39a1.16,1.16,0,0,1-.15-2.3q8.56-1.12,17.13-2.29a1.15,1.15,0,1,1,.31,2.28q-8.57,1.17-17.14,2.29Zm34.29-4.64a1.15,1.15,0,0,1-1.13-1,1.14,1.14,0,0,1,1-1.29l17.11-2.39a1.15,1.15,0,1,1,.32,2.27q-8.55,1.22-17.12,2.4Zm34.22-4.84a1.15,1.15,0,0,1-.16-2.29q8.56-1.23,17.09-2.48a1.15,1.15,0,0,1,.34,2.28l-17.1,2.48Zm34.19-5a1.15,1.15,0,0,1-.17-2.29q8.58-1.28,17.09-2.57a1.15,1.15,0,1,1,.34,2.28q-8.5,1.29-17.09,2.56Zm34.17-5.18a1.15,1.15,0,0,1-.17-2.28l17.07-2.65a1.15,1.15,0,0,1,.35,2.28l-17.08,2.64Zm-540.85-2.62a.9.9,0,0,1-.23,0,1.15,1.15,0,0,1-.9-1.35A36.4,36.4,0,0,1,339,1457a1.15,1.15,0,0,1,1.79,1.45,34,34,0,0,0-7.24,14.72A1.14,1.14,0,0,1,332.37,1474.12Zm575-2.7a1.15,1.15,0,0,1-.18-2.29q8.59-1.35,17.06-2.71a1.15,1.15,0,1,1,.36,2.27l-17.06,2.72Zm34.12-5.47a1.15,1.15,0,0,1-.18-2.28l17.05-2.78a1.14,1.14,0,0,1,1.32.94,1.15,1.15,0,0,1-.95,1.33l-17.05,2.78Zm34.11-5.59a1.15,1.15,0,0,1-.19-2.29l17.05-2.84a1.13,1.13,0,0,1,1.32.94,1.15,1.15,0,0,1-.94,1.33l-17.05,2.84Zm34.09-5.73a1.15,1.15,0,0,1-.19-2.28l17-2.91a1.15,1.15,0,0,1,.38,2.27l-17,2.91Zm34.07-5.84a1.15,1.15,0,0,1-.19-2.29l17-3a1.15,1.15,0,0,1,.4,2.27l-17,3Zm-691.17-1.39a1.16,1.16,0,0,1-.66-2.1,113.82,113.82,0,0,1,15.09-8.73,1.15,1.15,0,1,1,1,2.06,111.35,111.35,0,0,0-14.78,8.56A1.15,1.15,0,0,1,352.59,1447.4Zm725.24-4.58a1.15,1.15,0,0,1-.2-2.28l17-3a1.15,1.15,0,1,1,.4,2.26l-17,3Zm34.06-6.09a1.16,1.16,0,0,1-.21-2.29c6-1.08,11.7-2.12,17-3.09a1.15,1.15,0,1,1,.42,2.26l-17,3.1ZM383.43,1432a1.15,1.15,0,0,1-.4-2.23c5.1-1.9,10.64-3.74,16.48-5.49a1.15,1.15,0,0,1,.66,2.21c-5.79,1.73-11.29,3.56-16.34,5.44A1.12,1.12,0,0,1,383.43,1432ZM1146,1430.5a1.15,1.15,0,0,1-.21-2.28l17-3.17a1.15,1.15,0,0,1,.42,2.26l-17,3.17A.75.75,0,0,1,1146,1430.5Zm34.12-6.4a1.15,1.15,0,0,1-.22-2.28l2-.37a1.18,1.18,0,0,1,1.41,1.12c0,1-.11,1-3,1.51A.75.75,0,0,1,1180.07,1424.1ZM416.53,1422a1.15,1.15,0,0,1-.27-2.27c5.38-1.32,11.08-2.6,16.93-3.8a1.15,1.15,0,1,1,.46,2.26c-5.82,1.19-11.49,2.46-16.84,3.78A1.27,1.27,0,0,1,416.53,1422Zm33.9-7a1.15,1.15,0,0,1-.2-2.28c5.52-1,11.28-1.86,17.12-2.71a1.15,1.15,0,0,1,1.31,1,1.16,1.16,0,0,1-1,1.31c-5.83.84-11.57,1.75-17.07,2.7Zm34.25-5a1.15,1.15,0,0,1-.14-2.29c5.67-.68,11.47-1.32,17.23-1.89a1.17,1.17,0,0,1,1.26,1,1.15,1.15,0,0,1-1,1.26c-5.75.57-11.53,1.2-17.18,1.89Zm34.45-3.4a1.15,1.15,0,0,1-.08-2.3c10.69-.82,17.34-1.11,17.41-1.11a1.13,1.13,0,0,1,1.19,1.1,1.14,1.14,0,0,1-1.1,1.2c-.06,0-6.68.28-17.33,1.1Z" transform="translate(-162.3 -222.68)"/><polygon class="cls-18" points="1056.23 1262.04 1197.97 1181.71 1068.66 1189.35 1078.64 1211.19 1051.93 1240.78 1056.23 1262.04"/><polygon class="cls-10" points="1197.97 1181.71 1049.44 1208.93 941.25 1284.06 1197.97 1181.71"/><polygon class="cls-10" points="1068.66 1189.35 1197.97 1181.71 1062.71 1142.07 1068.66 1189.35"/><polygon class="cls-18" points="1822.96 206.58 1983.88 232.05 1877.97 157.47 1872.17 180.77 1832.84 187.28 1822.96 206.58"/><polygon class="cls-10" points="1983.88 232.05 1850.73 160.81 1719.3 152.18 1983.88 232.05"/><polygon class="cls-10" points="1877.97 157.47 1983.88 232.05 1902.77 116.78 1877.97 157.47"/><g id="girl_2" data-name="girl 2"><path class="cls-6" d="M2472.55,1081.26s-32.82,2.28-57,61.37c-24.43,59.6,30.21,59,11.81,97s26.49,60.62,40.13,91.71,82.34,106.08,87.78,140.28,66.53-35.56,66.53-35.56,62.1-66.24,39.84-104.72c-36.7-63.43-4.91-77.21-6.06-112.64S2587.15,1043.68,2472.55,1081.26Z" transform="translate(-162.3 -222.68)"/><path class="cls-19" d="M2454.73,1293.25s-127,55.37-151.16,54.31-172.82-45.29-172.82-45.29l3.79,25.58s114.75,66,154.86,69.74c39.5,3.69,174.55-35.45,187.59-43.71S2492.62,1301.61,2454.73,1293.25Z" transform="translate(-162.3 -222.68)"/><path class="cls-7" d="M2444.48,1354c11.68,8.1,26.31,14.78,44.69,19,68.89,15.92,95.29-42.3,105.2-82.27a59.12,59.12,0,0,0-23.33-7.17c-5-.59-10.22-1-14.56-1.19-7.73-5.93-19.26-30.18-21.81-67.83l-3.24.87-54.29,14.86s2.49,17.26,3.71,33.57c.94,12.77,2.6,20.18.18,23.16-4.24.92-8.29,6.31-8.29,6.31s0,0,0,0A349.68,349.68,0,0,0,2444.48,1354Z" transform="translate(-162.3 -222.68)"/><path class="cls-9" d="M2477.14,1230.25s2.49,17.25,3.7,33.57c30.76-3.08,45-32.36,50.59-48.43Z" transform="translate(-162.3 -222.68)"/><path class="cls-7" d="M2468,1246.45s73-4,69.8-49.45,4.06-76.54-42.69-75.89-54.57,18.62-57.19,34.05S2448.88,1246.33,2468,1246.45Z" transform="translate(-162.3 -222.68)"/><path class="cls-20" d="M2615.17,1502.39c6.59-33.7,28.09-168.36,6.59-211.69-7.72-15.57-38-17-71.25-15.61-10.34,6.68-49.76,31.91-65.94,28.76-.18,0-.49-.1-.91-.21-7.62-1.91-9-12.05-2.63-16.67,0,0-18,3.2-38.42,7-11.54,2.18-42.69,18.29-42.69,18.29s15.68,28.34,38.81,38.12c-3.93,35.18,1.92,50.7,38.41,132,30.84,68.68-4.16,130.52-4.16,130.52s181.54,145.95,182.55,71.64C2656.29,1628.59,2606.74,1545.47,2615.17,1502.39Z" transform="translate(-162.3 -222.68)"/><path class="cls-6" d="M2464,1771.61a33.78,33.78,0,0,1-24.28-14.78c-.87-1.32-1.81-2.72-2.81-4.23-20.66-31.28-28.7-127.08-75.18-229.14-11.32-24.85-52-29.32-63-57.41,0,0-27.28-91,52.2-93.72s212.86,253.31,215,280.16C2567.87,1678.5,2618.38,1789,2464,1771.61Z" transform="translate(-162.3 -222.68)"/><path class="cls-21" d="M2148.09,1769.51h113.12s4.23-18-3.2-30.32c-6.57-10.86-4.05-17,.82-26a43.85,43.85,0,0,1-19,3.59c-5.64-.32-11.6-2.88-16.83-5.92-4.87,5.56-25.71,29.18-32.23,33.86C2183.33,1750,2150.37,1748.1,2148.09,1769.51Z" transform="translate(-162.3 -222.68)"/><path class="cls-22" d="M2603.24,1326s14.73,134-80.76,162-122.59-123.24-45.49-134.13S2603.24,1326,2603.24,1326Z" transform="translate(-162.3 -222.68)"/><path class="cls-6" d="M2296.08,1398.64c-6.81,51.07-33.41,212.25-80.33,290.89-15.13,25.35,38.11,39.56,38.4,39.49,7.14-1.87,19-13.25,24.52-18.2,38.1-34.33,115.43-131.54,115.43-209.48,0-38,.66-110.59-27-129C2350.11,1361,2298.79,1378.36,2296.08,1398.64Z" transform="translate(-162.3 -222.68)"/><path class="cls-5" d="M2531.44,1769.51s-4.2-5.83-11.51-16.91c-8.69-13.18-18.32-39.11-30-72.35-12.27-34.89-26.83-77.82-45-122.49-5.61-13.79-11.57-27.74-17.91-41.68-11.33-24.84-42.47-21.41-53.55-49.5,0,0-43.24-97.37,36.24-100.06s230.5,260.48,239.18,286C2658.37,1680.39,2704.73,1796.25,2531.44,1769.51Z" transform="translate(-162.3 -222.68)"/><path class="cls-6" d="M2231.13,1769.51h113.12s4.23-18-3.2-30.32c-6.57-10.86-4.05-17,.82-26a43.88,43.88,0,0,1-19,3.59c-5.64-.32-11.6-2.88-16.83-5.92-4.87,5.56-25.71,29.18-32.23,33.86C2266.37,1750,2233.41,1748.1,2231.13,1769.51Z" transform="translate(-162.3 -222.68)"/><path class="cls-23" d="M2489.93,1680.25c-12.27-34.89-26.83-77.82-45-122.49,4.75-33.84,15-63.45,32.23-75.38C2477.14,1482.38,2519,1611.88,2489.93,1680.25Z" transform="translate(-162.3 -222.68)"/><path class="cls-5" d="M2362.12,1395c-6.82,51.06-16.41,215.86-63.33,294.5-15.13,25.35,38.11,39.56,38.4,39.49,7.14-1.87,19-13.25,24.52-18.2,38.09-34.33,115.43-131.54,115.43-209.48,0-38-44.6-107.54-72.24-126C2387.88,1364,2364.82,1374.74,2362.12,1395Z" transform="translate(-162.3 -222.68)"/><path class="cls-1" d="M2222.05,1261.1s-5.79-14.72-16.33-13.77-106.34,13.77-106.34,13.77,11.15,2.67,15.36,10l44.18,130.21h113.34Z" transform="translate(-162.3 -222.68)"/><path class="cls-24" d="M2594.37,1290.7s-160.55,59.13-184.68,57.92c-15.59-.79-145.2-46.35-145.2-46.35l-11.64,22S2379,1405.37,2413.68,1405c68.48-.79,184-42.82,197.05-51.08S2632.27,1299.06,2594.37,1290.7Z" transform="translate(-162.3 -222.68)"/><path class="cls-24" d="M2264.49,1302.27s-11.64-17.9-23.22-18.43-31.6,7.9-38.45,9.22-26.33,7.63-20.53,17.11,32.65,11.59,44.23,9.48,26.33,4.63,26.33,4.63Z" transform="translate(-162.3 -222.68)"/><path class="cls-24" d="M2244.42,1284.39s-18.42-8.45-23.69-10-4.21,0-2.63,5,11.06,9.75,11.06,11.32S2244.42,1284.39,2244.42,1284.39Z" transform="translate(-162.3 -222.68)"/><path class="cls-10" d="M2454.29,1220.33s6.9-2.73,26.32-1.16c0,0-1,7.58-15.36,8.33C2457.14,1227.92,2454.29,1220.33,2454.29,1220.33Z" transform="translate(-162.3 -222.68)"/><path class="cls-20" d="M2511.65,1319.86s14.36,45.46,63.68,55.8c0,0,81.44-25.09,40.89-80.57C2616.22,1295.09,2576.13,1265.3,2511.65,1319.86Z" transform="translate(-162.3 -222.68)"/><path class="cls-10" d="M2099.38,1261.1s-10.64,4.07-2.59,17.88l103.56-13.81s-3.6-16,4.53-17.75Z" transform="translate(-162.3 -222.68)"/><path class="cls-19" d="M2136.49,1295.09c2.45-9.85,2.3-12.23-3.26-18.24-3.68-4-9.31,5.88-12.22,11.82-1.07-2.62-2.89-6.89-3.51-7.1-.89-.31,1.24,13.23,1.24,13.23h0a16,16,0,0,0-.06,1.7h0s-4.49,19.9,15.09,30.65l-3.74-11C2132.29,1315.79,2134,1305.08,2136.49,1295.09Z" transform="translate(-162.3 -222.68)"/><path class="cls-6" d="M2465.18,1131.15s15.39-5.4,22.85,10.33,9.82,53.31,39.7,56.38,31-63.67,31-63.67L2484,1104.66l-39.49,24.93Z" transform="translate(-162.3 -222.68)"/><path class="cls-6" d="M2465.18,1131.15s-16.85.36-20.7,14.55,2.16,40.65-7.17,42.57-17.81-44.11.24-59.06S2465.18,1131.15,2465.18,1131.15Z" transform="translate(-162.3 -222.68)"/></g><path class="cls-7" d="M1142.42,884.76s16.87-6.39,18.79-10.8,7.48-6.33,14.19-9.4,10.74-8.63,11.7-7.86,1.15,4.6-1.54,7.48-14,23-18.34,25.31S1142.42,884.76,1142.42,884.76Z" transform="translate(-162.3 -222.68)"/><path class="cls-2" d="M2892.73,1768.7H2784.3c-5.81-4.93,4-16.13,14.3-16.88,4.46-.34,10.1.6,16.55,2,1.49-19.82,10-108.91,42.12-105.33,36.11,4,0,39.24-10.2,60.09-7.57,15.45-15.54,37.6-19.19,48,2.93.64,6,1.26,9.07,1.83,4.79-14.69,22.59-64.12,45.24-61.24,26.59,3.37,15.9,23.19-3,35-13.82,8.65-30.8,20.95-38.87,26.89a115.63,115.63,0,0,0,21.21,1.7C2880.15,1760.28,2889.22,1765.75,2892.73,1768.7Z" transform="translate(-162.3 -222.68)"/><path class="cls-2" d="M462.75,1770.9s-41.21-113.19-70.15-103.54S462.75,1770.9,462.75,1770.9Z" transform="translate(-162.3 -222.68)"/><path class="cls-2" d="M447,1770.9c-3.51,0-69.28-68.25-73.66-50.38S447,1770.9,447,1770.9Z" transform="translate(-162.3 -222.68)"/><path class="cls-2" d="M517.12,1770.9s-27.2-24.94-61.64-18.45-49.14,13.61-70.77,8.69S352,1770.9,352,1770.9Z" transform="translate(-162.3 -222.68)"/><rect class="cls-25" y="1546.98" width="2892.76" height="7.67" rx="3.28"/><rect class="cls-12" x="958.1" y="1401.28" width="257.56" height="101.75" rx="21.66"/><path class="cls-13" d="M1312.72,1649.25H1151.35a3.28,3.28,0,0,1-3.28-3.27h0a3.29,3.29,0,0,1,3.28-3.28h161.37A3.29,3.29,0,0,1,1316,1646h0A3.29,3.29,0,0,1,1312.72,1649.25Z" transform="translate(-162.3 -222.68)"/><path class="cls-13" d="M1180,1663.39h-28.62a3.29,3.29,0,0,1-3.28-3.28h0a3.29,3.29,0,0,1,3.28-3.28H1180a3.29,3.29,0,0,1,3.27,3.28h0A3.29,3.29,0,0,1,1180,1663.39Z" transform="translate(-162.3 -222.68)"/><path class="cls-13" d="M1270.13,1663.39h-78.85a3.29,3.29,0,0,1-3.28-3.28h0a3.29,3.29,0,0,1,3.28-3.28h78.85a3.29,3.29,0,0,1,3.27,3.28h0A3.29,3.29,0,0,1,1270.13,1663.39Z" transform="translate(-162.3 -222.68)"/><path class="cls-13" d="M1312.72,1689.56H1151.35a3.29,3.29,0,0,1-3.28-3.28h0a3.29,3.29,0,0,1,3.28-3.28h161.37a3.29,3.29,0,0,1,3.28,3.28h0A3.29,3.29,0,0,1,1312.72,1689.56Z" transform="translate(-162.3 -222.68)"/><path class="cls-13" d="M1209.92,1703.69h-58.57a3.29,3.29,0,0,1-3.28-3.28h0a3.29,3.29,0,0,1,3.28-3.28h58.57a3.29,3.29,0,0,1,3.27,3.28h0A3.29,3.29,0,0,1,1209.92,1703.69Z" transform="translate(-162.3 -222.68)"/><path class="cls-13" d="M1281.18,1703.69h-58.57a3.29,3.29,0,0,1-3.27-3.28h0a3.29,3.29,0,0,1,3.27-3.28h58.57a3.29,3.29,0,0,1,3.28,3.28h0A3.29,3.29,0,0,1,1281.18,1703.69Z" transform="translate(-162.3 -222.68)"/></svg>