<svg width="470" height="329" viewBox="0 0 470 329" fill="none" xmlns="http://www.w3.org/2000/svg">
<path d="M-3.05176e-05 327.147C-3.05176e-05 327.261 105.223 327.359 234.984 327.359C364.801 327.359 470 327.261 470 327.147C470 327.034 364.801 326.936 234.992 326.936C105.223 326.936 -3.05176e-05 327.034 -3.05176e-05 327.147Z" fill="#263238"/>
<path d="M229.154 120.915H334.989L327.173 45.6296H220.432L229.154 120.915Z" fill="#CECCD6"/>
<path d="M234.546 120.915H340.381L332.556 45.6296H225.824L234.546 120.915Z" fill="#D8D8D8"/>
<path d="M238.469 117.503H336.678L329.416 47.6403H230.376L238.469 117.503Z" fill="#F5F5F5"/>
<path d="M326.038 105.849C326.171 105.839 325.198 95.3276 323.862 82.3766C322.526 69.4256 321.323 58.9427 321.19 58.9523C321.056 58.9618 322.03 69.4732 323.366 82.4242C324.702 95.3753 325.895 105.868 326.038 105.849Z" fill="#455A64"/>
<path d="M308.154 61.2967C308.154 61.4301 310.358 61.5444 313.088 61.5444C315.807 61.5444 318.021 61.4301 318.021 61.2967C318.021 61.1632 315.817 61.0489 313.088 61.0489C310.358 61.0489 308.154 61.1537 308.154 61.2967Z" fill="#455A64"/>
<path d="M266.201 61.2967C266.201 61.4301 274.991 61.5444 285.842 61.5444C296.692 61.5444 305.482 61.4301 305.482 61.2967C305.482 61.1632 296.692 61.0489 285.842 61.0489C275 61.0489 266.201 61.1537 266.201 61.2967Z" fill="#455A64"/>
<path d="M309.318 86.1218C309.318 86.2552 311.522 86.3696 314.252 86.3696C316.972 86.3696 319.186 86.2552 319.186 86.1218C319.186 85.9884 316.981 85.874 314.252 85.874C311.522 85.874 309.318 85.9884 309.318 86.1218Z" fill="#455A64"/>
<path d="M267.366 86.1218C267.366 86.2552 276.155 86.3696 287.006 86.3696C297.857 86.3696 306.646 86.2552 306.646 86.1218C306.646 85.9884 297.857 85.874 287.006 85.874C276.155 85.874 267.366 85.9884 267.366 86.1218Z" fill="#455A64"/>
<path d="M280.745 97.5671C280.745 97.7005 289.535 97.8149 300.385 97.8149C311.236 97.8149 320.026 97.7005 320.026 97.5671C320.026 97.4337 311.236 97.3193 300.385 97.3193C289.535 97.3193 280.745 97.4242 280.745 97.5671Z" fill="#455A64"/>
<path d="M303.802 68.3011C303.802 68.4345 306.904 68.5488 310.74 68.5488C314.567 68.5488 317.678 68.4345 317.678 68.3011C317.678 68.1676 314.576 68.0533 310.74 68.0533C306.913 68.0533 303.802 68.1676 303.802 68.3011Z" fill="#455A64"/>
<path d="M304.155 78.5837C304.155 78.7171 307.257 78.8315 311.093 78.8315C314.92 78.8315 318.031 78.7171 318.031 78.5837C318.031 78.4503 314.929 78.3359 311.093 78.3359C307.266 78.3359 304.155 78.4408 304.155 78.5837Z" fill="#455A64"/>
<path d="M292.436 93.2692C292.436 93.4026 295.537 93.517 299.374 93.517C303.201 93.517 306.312 93.4026 306.312 93.2692C306.312 93.1358 303.21 93.0214 299.374 93.0214C295.537 93.0214 292.436 93.1263 292.436 93.2692Z" fill="#455A64"/>
<path d="M253.347 68.3011C253.347 68.4345 261.277 68.5488 271.069 68.5488C280.86 68.5488 288.79 68.4345 288.79 68.3011C288.79 68.1676 280.86 68.0533 271.069 68.0533C261.277 68.0533 253.347 68.1676 253.347 68.3011Z" fill="#455A64"/>
<path d="M264.283 79.1745C264.283 79.3079 272.214 79.4223 282.005 79.4223C291.797 79.4223 299.727 79.3079 299.727 79.1745C299.727 79.0411 291.797 78.9268 282.005 78.9268C272.214 78.9268 264.283 79.0411 264.283 79.1745Z" fill="#455A64"/>
<path d="M252.087 93.2692C252.087 93.4026 260.017 93.517 269.809 93.517C279.6 93.517 287.531 93.4026 287.531 93.2692C287.531 93.1358 279.6 93.0214 269.809 93.0214C260.017 93.0214 252.087 93.1263 252.087 93.2692Z" fill="#455A64"/>
<path d="M284.439 105.849C284.439 105.982 292.369 106.096 302.161 106.096C311.952 106.096 319.882 105.982 319.882 105.849C319.882 105.715 311.952 105.601 302.161 105.601C292.379 105.601 284.439 105.715 284.439 105.849Z" fill="#455A64"/>
<path d="M245.254 105.849C245.254 105.982 253.184 106.096 262.976 106.096C272.767 106.096 280.698 105.982 280.698 105.849C280.698 105.715 272.767 105.601 262.976 105.601C253.184 105.601 245.254 105.715 245.254 105.849Z" fill="#455A64"/>
<path d="M284.448 109.946C284.448 110.08 292.379 110.194 302.17 110.194C311.961 110.194 319.892 110.08 319.892 109.946C319.892 109.813 311.961 109.699 302.17 109.699C292.379 109.699 284.448 109.813 284.448 109.946Z" fill="#455A64"/>
<path d="M282.721 71.2553C282.721 71.3887 290.651 71.5031 300.443 71.5031C310.234 71.5031 318.165 71.3887 318.165 71.2553C318.165 71.1219 310.234 71.0075 300.443 71.0075C290.651 71.0075 282.721 71.1123 282.721 71.2553Z" fill="#455A64"/>
<path d="M292.169 68.3392C292.169 68.4726 294.211 68.587 296.73 68.587C299.25 68.587 301.292 68.4726 301.292 68.3392C301.292 68.2058 299.25 68.0914 296.73 68.0914C294.211 68.0914 292.169 68.2058 292.169 68.3392Z" fill="#455A64"/>
<path d="M310.473 89.4953C310.473 89.6288 312.515 89.7431 315.034 89.7431C317.554 89.7431 319.596 89.6288 319.596 89.4953C319.596 89.3619 317.554 89.2476 315.034 89.2476C312.515 89.2476 310.473 89.3619 310.473 89.4953Z" fill="#455A64"/>
<path d="M310.692 93.2692C310.692 93.4026 312.734 93.517 315.254 93.517C317.773 93.517 319.816 93.4026 319.816 93.2692C319.816 93.1358 317.773 93.0214 315.254 93.0214C312.734 93.0214 310.692 93.1263 310.692 93.2692Z" fill="#455A64"/>
<path d="M231.607 55.1023C231.607 55.2357 253.69 55.35 280.936 55.35C308.182 55.35 330.265 55.2357 330.265 55.1023C330.265 54.9688 308.182 54.8545 280.936 54.8545C253.7 54.8545 231.607 54.9688 231.607 55.1023Z" fill="#455A64"/>
<path d="M322.44 51.7763C322.44 52.4244 322.965 52.939 323.604 52.939C324.244 52.939 324.769 52.4148 324.769 51.7763C324.769 51.1283 324.244 50.6137 323.604 50.6137C322.965 50.6137 322.44 51.1283 322.44 51.7763Z" fill="#455A64"/>
<path d="M317.42 51.7763C317.42 52.4244 317.945 52.939 318.584 52.939C319.224 52.939 319.749 52.4148 319.749 51.7763C319.749 51.1283 319.224 50.6137 318.584 50.6137C317.945 50.6137 317.42 51.1283 317.42 51.7763Z" fill="#455A64"/>
<path d="M312.4 51.7763C312.4 52.4244 312.925 52.939 313.565 52.939C314.204 52.939 314.729 52.4148 314.729 51.7763C314.729 51.1283 314.204 50.6137 313.565 50.6137C312.925 50.6137 312.4 51.1283 312.4 51.7763Z" fill="#455A64"/>
<path d="M90.1183 123.193H201.45L193.224 44H80.9376L90.1183 123.193Z" fill="#CECCD6"/>
<path d="M95.787 123.193H207.119L198.893 44H86.6064L95.787 123.193Z" fill="#CECCD6"/>
<path d="M99.9098 119.61H203.225L195.581 46.1252H91.3971L99.9098 119.61Z" fill="#EBEBEB"/>
<path d="M191.964 106.249C192.098 106.239 191.067 95.1751 189.664 81.557C188.252 67.9294 187.002 56.9034 186.868 56.9129C186.735 56.9224 187.765 67.977 189.168 81.6047C190.58 95.2323 191.831 106.258 191.964 106.249Z" fill="#455A64"/>
<path d="M173.154 59.3716C173.154 59.505 175.473 59.6194 178.336 59.6194C181.199 59.6194 183.518 59.505 183.518 59.3716C183.518 59.2382 181.199 59.1238 178.336 59.1238C175.483 59.1238 173.154 59.2382 173.154 59.3716Z" fill="#455A64"/>
<path d="M129.026 59.3716C129.026 59.505 138.274 59.6194 149.678 59.6194C161.092 59.6194 170.339 59.505 170.339 59.3716C170.339 59.2382 161.092 59.1238 149.678 59.1238C138.283 59.1238 129.026 59.2382 129.026 59.3716Z" fill="#455A64"/>
<path d="M174.376 85.4929C174.376 85.6263 176.695 85.7407 179.558 85.7407C182.421 85.7407 184.74 85.6263 184.74 85.4929C184.74 85.3595 182.421 85.2451 179.558 85.2451C176.705 85.2451 174.376 85.3499 174.376 85.4929Z" fill="#455A64"/>
<path d="M130.257 85.4929C130.257 85.6263 139.505 85.7407 150.909 85.7407C162.323 85.7407 171.57 85.6263 171.57 85.4929C171.57 85.3595 162.323 85.2451 150.909 85.2451C139.505 85.2451 130.257 85.3499 130.257 85.4929Z" fill="#455A64"/>
<path d="M144.324 97.529C144.324 97.6624 153.572 97.7768 164.976 97.7768C176.39 97.7768 185.637 97.6624 185.637 97.529C185.637 97.3956 176.39 97.2812 164.976 97.2812C153.572 97.2812 144.324 97.3956 144.324 97.529Z" fill="#455A64"/>
<path d="M168.583 66.7477C168.583 66.8811 171.847 66.9955 175.874 66.9955C179.902 66.9955 183.175 66.8811 183.175 66.7477C183.175 66.6143 179.911 66.4999 175.874 66.4999C171.857 66.4999 168.583 66.6143 168.583 66.7477Z" fill="#455A64"/>
<path d="M168.955 77.5545C168.955 77.6879 172.219 77.8023 176.246 77.8023C180.274 77.8023 183.547 77.6879 183.547 77.5545C183.547 77.4211 180.283 77.3067 176.246 77.3067C172.219 77.3067 168.955 77.4211 168.955 77.5545Z" fill="#455A64"/>
<path d="M156.625 93.0024C156.625 93.1358 159.889 93.2501 163.917 93.2501C167.944 93.2501 171.217 93.1358 171.217 93.0024C171.217 92.8689 167.953 92.7546 163.917 92.7546C159.889 92.7546 156.625 92.8689 156.625 93.0024Z" fill="#455A64"/>
<path d="M115.503 66.7477C115.503 66.8811 123.844 66.9955 134.141 66.9955C144.439 66.9955 152.779 66.8811 152.779 66.7477C152.779 66.6143 144.439 66.4999 134.141 66.4999C123.854 66.4999 115.503 66.6143 115.503 66.7477Z" fill="#455A64"/>
<path d="M127.013 78.1835C127.013 78.3169 135.353 78.4313 145.651 78.4313C155.948 78.4313 164.289 78.3169 164.289 78.1835C164.289 78.0501 155.948 77.9357 145.651 77.9357C135.353 77.9357 127.013 78.0501 127.013 78.1835Z" fill="#455A64"/>
<path d="M114.177 93.0024C114.177 93.1358 122.518 93.2501 132.815 93.2501C143.112 93.2501 151.453 93.1358 151.453 93.0024C151.453 92.8689 143.112 92.7546 132.815 92.7546C122.527 92.7546 114.177 92.8689 114.177 93.0024Z" fill="#455A64"/>
<path d="M148.218 106.249C148.218 106.382 156.559 106.497 166.856 106.497C177.153 106.497 185.494 106.382 185.494 106.249C185.494 106.115 177.153 106.001 166.856 106.001C156.559 106.001 148.218 106.106 148.218 106.249Z" fill="#455A64"/>
<path d="M106.991 106.249C106.991 106.382 115.332 106.497 125.629 106.497C135.926 106.497 144.267 106.382 144.267 106.249C144.267 106.115 135.926 106.001 125.629 106.001C115.341 106.001 106.991 106.106 106.991 106.249Z" fill="#455A64"/>
<path d="M148.218 110.556C148.218 110.69 156.559 110.804 166.856 110.804C177.153 110.804 185.494 110.69 185.494 110.556C185.494 110.423 177.153 110.309 166.856 110.309C156.568 110.309 148.218 110.413 148.218 110.556Z" fill="#455A64"/>
<path d="M146.405 69.8544C146.405 69.9878 154.745 70.1022 165.043 70.1022C175.34 70.1022 183.681 69.9878 183.681 69.8544C183.681 69.721 175.34 69.6066 165.043 69.6066C154.755 69.6066 146.405 69.7115 146.405 69.8544Z" fill="#455A64"/>
<path d="M156.349 66.7859C156.349 66.9193 158.496 67.0336 161.149 67.0336C163.802 67.0336 165.949 66.9193 165.949 66.7859C165.949 66.6524 163.802 66.5381 161.149 66.5381C158.496 66.5381 156.349 66.6524 156.349 66.7859Z" fill="#455A64"/>
<path d="M175.598 89.0379C175.598 89.1714 177.745 89.2857 180.398 89.2857C183.051 89.2857 185.198 89.1714 185.198 89.0379C185.198 88.9045 183.051 88.7902 180.398 88.7902C177.745 88.7902 175.598 88.9045 175.598 89.0379Z" fill="#455A64"/>
<path d="M175.826 93.0024C175.826 93.1358 177.974 93.2501 180.627 93.2501C183.28 93.2501 185.427 93.1358 185.427 93.0024C185.427 92.8689 183.28 92.7546 180.627 92.7546C177.974 92.7546 175.826 92.8689 175.826 93.0024Z" fill="#455A64"/>
<path d="M92.6377 52.8627C92.6377 52.9961 115.876 53.1105 144.525 53.1105C173.193 53.1105 196.421 52.9961 196.421 52.8627C196.421 52.7293 173.193 52.6149 144.525 52.6149C115.876 52.6149 92.6377 52.7293 92.6377 52.8627Z" fill="#455A64"/>
<path d="M188.185 49.3558C188.185 50.0324 188.739 50.5852 189.416 50.5852C190.094 50.5852 190.647 50.0324 190.647 49.3558C190.647 48.6792 190.094 48.1265 189.416 48.1265C188.739 48.136 188.185 48.6792 188.185 49.3558Z" fill="#455A64"/>
<path d="M182.908 49.3558C182.908 50.0324 183.461 50.5852 184.139 50.5852C184.816 50.5852 185.37 50.0324 185.37 49.3558C185.37 48.6792 184.816 48.1265 184.139 48.1265C183.461 48.1265 182.908 48.6792 182.908 49.3558Z" fill="#455A64"/>
<path d="M177.63 49.3558C177.63 50.0324 178.184 50.5852 178.861 50.5852C179.539 50.5852 180.092 50.0324 180.092 49.3558C180.092 48.6792 179.539 48.1265 178.861 48.1265C178.184 48.1265 177.63 48.6792 177.63 49.3558Z" fill="#455A64"/>
<path d="M333.749 315.142H342.032V326.426H333.749V315.142Z" fill="#263238"/>
<path d="M289.35 183.475H215.857V179.902H289.35V183.475Z" fill="#263238"/>
<path d="M204.466 183.478L190.685 131.894H248.069L260.552 183.478H204.466Z" fill="#D8D8D8"/>
<path d="M257.116 179.571H205.85L193.911 134.276H245.445L257.116 179.571Z" fill="#8FAAE5"/>
<path d="M194.77 137.535C212.129 137.535 228.954 137.535 246.313 137.535L245.445 134.276H193.911L194.77 137.535Z" fill="#3C6BD2"/>
<path d="M243.269 136.487C242.958 136.487 242.706 136.235 242.706 135.925C242.706 135.614 242.958 135.362 243.269 135.362C243.58 135.362 243.832 135.614 243.832 135.925C243.832 136.235 243.58 136.487 243.269 136.487Z" fill="#8FAAE5"/>
<path d="M241.332 136.487C241.021 136.487 240.769 136.235 240.769 135.925C240.769 135.614 241.021 135.362 241.332 135.362C241.643 135.362 241.895 135.614 241.895 135.925C241.895 136.235 241.643 136.487 241.332 136.487Z" fill="#8FAAE5"/>
<path d="M239.394 136.487C239.083 136.487 238.831 136.235 238.831 135.925C238.831 135.614 239.083 135.362 239.394 135.362C239.705 135.362 239.957 135.614 239.957 135.925C239.957 136.235 239.705 136.487 239.394 136.487Z" fill="#8FAAE5"/>
<path d="M127.528 183.308H421.137V190.074H127.528V183.308Z" fill="#BD9675"/>
<path d="M408.091 190.073H417.195V327.017H408.091V190.073Z" fill="#A37B5D"/>
<path d="M131.966 190.073H141.07V327.055H131.966V190.073Z" fill="#6D5647"/>
<path d="M189.388 190.073H198.492V327.055H189.388V190.073Z" fill="#A37B5D"/>
<path d="M379.852 183.307C379.852 183.44 388.603 183.555 399.397 183.555C410.19 183.555 418.942 183.44 418.942 183.307C418.942 183.173 410.19 183.059 399.397 183.059C388.603 183.059 379.852 183.173 379.852 183.307Z" fill="#455A64"/>
<path d="M294.01 320.355L293.781 310.559L312.151 310.006L312.648 324.329L311.512 324.434C306.454 324.863 285.755 326.283 282.329 325.358C278.502 324.339 294.01 320.355 294.01 320.355Z" fill="#E8505B"/>
<g opacity="0.4">
<g opacity="0.4">
<g opacity="0.4">
<path opacity="0.4" d="M286.443 322.576C286.443 322.576 281.022 324.32 281.728 325.196C282.435 326.073 303.411 325.435 312.639 324.339L312.601 323.929L288.141 324.891C288.141 324.882 287.512 322.585 286.443 322.576Z" fill="white"/>
</g>
</g>
</g>
<path d="M312.878 323.91C312.878 323.919 312.773 323.929 312.563 323.957C312.295 323.986 311.99 324.005 311.656 324.043C310.749 324.11 309.633 324.196 308.325 324.291C305.51 324.482 301.616 324.691 297.312 324.825C293.008 324.958 289.105 324.996 286.28 324.987C284.963 324.968 283.847 324.958 282.94 324.949C282.606 324.939 282.301 324.93 282.034 324.92C281.824 324.91 281.719 324.901 281.719 324.891C281.719 324.882 281.824 324.872 282.034 324.872C282.31 324.863 282.606 324.863 282.94 324.853C283.847 324.844 284.963 324.834 286.28 324.815C289.105 324.787 292.999 324.72 297.303 324.586C301.607 324.453 305.501 324.272 308.316 324.12C309.633 324.053 310.749 323.996 311.656 323.948C311.99 323.929 312.295 323.919 312.563 323.91C312.773 323.9 312.878 323.9 312.878 323.91Z" fill="#263238"/>
<path d="M288.151 325.168C288.084 325.177 288.008 324.386 287.483 323.595C286.968 322.795 286.271 322.414 286.309 322.357C286.319 322.299 287.12 322.623 287.674 323.472C288.227 324.32 288.208 325.177 288.151 325.168Z" fill="#263238"/>
<path d="M293.486 322.261C293.438 322.299 293.161 321.985 292.884 321.575C292.608 321.165 292.417 320.803 292.465 320.765C292.512 320.727 292.789 321.041 293.066 321.451C293.352 321.861 293.533 322.223 293.486 322.261Z" fill="#263238"/>
<path d="M294.946 321.423C294.908 321.47 294.612 321.289 294.287 321.013C293.963 320.736 293.734 320.479 293.772 320.432C293.81 320.384 294.106 320.565 294.43 320.841C294.755 321.118 294.994 321.375 294.946 321.423Z" fill="#263238"/>
<path d="M295.833 319.669C295.833 319.726 295.404 319.803 294.879 319.822C294.344 319.841 293.915 319.812 293.915 319.755C293.915 319.698 294.345 319.621 294.869 319.602C295.404 319.574 295.833 319.602 295.833 319.669Z" fill="#263238"/>
<path d="M296.12 318.44C296.139 318.497 295.681 318.716 295.06 318.783C294.44 318.85 293.944 318.726 293.953 318.668C293.963 318.602 294.45 318.621 295.041 318.564C295.633 318.497 296.101 318.373 296.12 318.44Z" fill="#263238"/>
<path d="M292.818 320.679C292.818 320.708 292.369 320.775 291.634 320.708C291.272 320.679 290.833 320.603 290.365 320.47C290.136 320.393 289.888 320.346 289.64 320.193C289.525 320.117 289.392 320.012 289.334 319.841C289.277 319.669 289.373 319.469 289.497 319.364C290.604 318.745 291.758 319.345 292.197 319.917C292.436 320.203 292.55 320.498 292.608 320.689C292.665 320.889 292.665 321.003 292.646 321.003C292.608 321.022 292.55 320.546 292.073 320.012C291.835 319.755 291.491 319.507 291.043 319.393C290.623 319.278 290.031 319.269 289.64 319.536C289.458 319.679 289.535 319.898 289.745 320.012C289.945 320.136 290.193 320.203 290.413 320.279C290.861 320.422 291.281 320.508 291.634 320.555C292.36 320.651 292.818 320.641 292.818 320.679Z" fill="#263238"/>
<path d="M292.512 320.746C292.493 320.755 292.312 320.46 292.35 319.936C292.369 319.679 292.455 319.364 292.646 319.069C292.846 318.802 293.104 318.43 293.61 318.44C293.886 318.468 294.03 318.773 293.991 318.973C293.972 319.183 293.886 319.364 293.81 319.507C293.648 319.803 293.457 320.05 293.276 320.241C292.913 320.613 292.627 320.765 292.617 320.736C292.598 320.708 292.846 320.517 293.161 320.136C293.314 319.945 293.486 319.698 293.638 319.412C293.791 319.154 293.886 318.707 293.591 318.659C293.295 318.64 292.999 318.945 292.827 319.183C292.646 319.44 292.55 319.726 292.512 319.955C292.426 320.431 292.55 320.736 292.512 320.746Z" fill="#263238"/>
<path d="M312.353 318.897C312.353 318.935 311.828 318.859 310.998 318.983C310.177 319.097 309.041 319.469 308.077 320.289C307.104 321.108 306.56 322.166 306.312 322.957C306.054 323.748 306.045 324.282 306.006 324.282C305.997 324.282 305.978 324.148 305.997 323.91C306.006 323.672 306.054 323.329 306.169 322.919C306.388 322.099 306.932 320.984 307.944 320.127C308.955 319.269 310.148 318.907 310.988 318.831C311.417 318.783 311.761 318.802 312 318.821C312.229 318.85 312.353 318.888 312.353 318.897Z" fill="#263238"/>
<path d="M310.215 311.321C310.272 311.321 310.396 313.008 310.492 315.085C310.578 317.163 310.606 318.859 310.549 318.859C310.492 318.859 310.368 317.182 310.272 315.095C310.177 313.017 310.148 311.331 310.215 311.321Z" fill="#263238"/>
<path d="M303.601 322.671C303.611 322.728 302.418 322.957 300.929 323.024C299.441 323.09 298.229 322.947 298.238 322.89C298.238 322.824 299.441 322.862 300.92 322.804C302.399 322.738 303.592 322.614 303.601 322.671Z" fill="#263238"/>
<path d="M307.209 322.557C307.257 322.604 307.123 322.814 307.008 323.09C306.894 323.367 306.837 323.614 306.77 323.614C306.713 323.614 306.665 323.329 306.799 323.005C306.932 322.69 307.161 322.519 307.209 322.557Z" fill="#263238"/>
<path d="M308.507 320.832C308.554 320.87 308.44 321.07 308.259 321.27C308.077 321.47 307.886 321.594 307.848 321.556C307.801 321.518 307.915 321.318 308.096 321.118C308.278 320.918 308.469 320.784 308.507 320.832Z" fill="#263238"/>
<path d="M310.425 320.003C310.415 320.069 310.167 320.069 309.9 320.174C309.633 320.27 309.442 320.422 309.394 320.384C309.347 320.355 309.49 320.088 309.824 319.965C310.158 319.841 310.444 319.946 310.425 320.003Z" fill="#263238"/>
<path d="M311.799 319.593C311.828 319.65 311.723 319.745 311.57 319.812C311.418 319.879 311.274 319.879 311.255 319.822C311.227 319.764 311.332 319.669 311.484 319.602C311.637 319.545 311.771 319.536 311.799 319.593Z" fill="#263238"/>
<g opacity="0.3">
<path opacity="0.3" d="M312.315 318.411L293.953 318.668L293.915 316.458L312.419 317.239L312.315 318.411Z" fill="black"/>
</g>
<path d="M265.027 321.88L265.056 312.083L283.436 312.017L283.551 326.349L282.415 326.426C277.348 326.721 256.62 327.588 253.222 326.578C249.434 325.444 265.027 321.88 265.027 321.88Z" fill="#E8505B"/>
<g opacity="0.4">
<g opacity="0.4">
<g opacity="0.4">
<path opacity="0.4" d="M257.412 323.891C257.412 323.891 251.944 325.492 252.631 326.388C253.318 327.284 274.294 327.198 283.551 326.35L283.523 325.94L259.054 326.254C259.044 326.245 258.481 323.929 257.412 323.891Z" fill="white"/>
</g>
</g>
</g>
<path d="M283.809 325.921C283.809 325.93 283.704 325.94 283.494 325.959C283.217 325.978 282.921 325.997 282.587 326.016C281.681 326.064 280.564 326.111 279.247 326.178C276.422 326.292 272.529 326.397 268.225 326.416C263.921 326.435 260.017 326.369 257.193 326.283C255.876 326.235 254.759 326.188 253.852 326.159C253.518 326.14 253.213 326.121 252.946 326.111C252.736 326.102 252.631 326.083 252.631 326.083C252.631 326.073 252.736 326.073 252.946 326.073C253.223 326.073 253.518 326.083 253.852 326.083C254.759 326.102 255.876 326.111 257.193 326.14C260.017 326.188 263.911 326.226 268.215 326.207C272.519 326.188 276.413 326.102 279.238 326.035C280.555 325.997 281.671 325.968 282.578 325.949C282.912 325.94 283.217 325.94 283.484 325.93C283.694 325.911 283.809 325.921 283.809 325.921Z" fill="#263238"/>
<path d="M259.054 326.531C258.987 326.54 258.93 325.74 258.424 324.939C257.927 324.129 257.24 323.719 257.279 323.672C257.288 323.615 258.08 323.958 258.615 324.825C259.149 325.692 259.101 326.55 259.054 326.531Z" fill="#263238"/>
<path d="M264.465 323.767C264.417 323.796 264.15 323.491 263.882 323.062C263.615 322.643 263.434 322.271 263.491 322.242C263.539 322.214 263.806 322.519 264.073 322.947C264.341 323.367 264.512 323.729 264.465 323.767Z" fill="#263238"/>
<path d="M265.944 322.976C265.906 323.024 265.61 322.833 265.295 322.547C264.98 322.261 264.751 321.994 264.789 321.956C264.827 321.909 265.123 322.099 265.438 322.385C265.762 322.662 265.982 322.928 265.944 322.976Z" fill="#263238"/>
<path d="M266.879 321.232C266.879 321.289 266.45 321.346 265.925 321.356C265.39 321.366 264.961 321.318 264.961 321.261C264.961 321.203 265.39 321.146 265.915 321.137C266.45 321.127 266.879 321.175 266.879 321.232Z" fill="#263238"/>
<path d="M267.194 320.012C267.213 320.069 266.745 320.279 266.125 320.327C265.505 320.374 265.009 320.241 265.018 320.184C265.028 320.117 265.514 320.155 266.106 320.108C266.698 320.06 267.175 319.955 267.194 320.012Z" fill="#263238"/>
<path d="M263.835 322.166C263.835 322.195 263.386 322.252 262.651 322.166C262.289 322.128 261.859 322.042 261.392 321.899C261.163 321.823 260.924 321.756 260.666 321.604C260.552 321.527 260.418 321.413 260.371 321.242C260.323 321.061 260.418 320.87 260.552 320.765C261.678 320.174 262.814 320.803 263.234 321.385C263.463 321.68 263.568 321.966 263.625 322.166C263.673 322.366 263.673 322.48 263.653 322.48C263.615 322.5 263.568 322.014 263.109 321.48C262.88 321.213 262.537 320.956 262.098 320.832C261.678 320.708 261.086 320.679 260.695 320.937C260.504 321.08 260.581 321.299 260.79 321.423C260.981 321.547 261.239 321.623 261.459 321.699C261.907 321.852 262.327 321.947 262.68 322.014C263.377 322.128 263.835 322.128 263.835 322.166Z" fill="#263238"/>
<path d="M263.529 322.223C263.51 322.233 263.339 321.937 263.386 321.404C263.415 321.146 263.51 320.832 263.701 320.536C263.911 320.27 264.178 319.907 264.684 319.927C264.961 319.965 265.094 320.27 265.047 320.47C265.028 320.679 264.932 320.851 264.846 320.994C264.675 321.289 264.474 321.527 264.293 321.709C263.921 322.071 263.634 322.214 263.615 322.185C263.596 322.156 263.854 321.975 264.178 321.594C264.341 321.404 264.512 321.165 264.665 320.889C264.827 320.641 264.932 320.193 264.636 320.136C264.341 320.108 264.045 320.403 263.863 320.641C263.682 320.899 263.577 321.175 263.529 321.413C263.453 321.909 263.568 322.214 263.529 322.223Z" fill="#263238"/>
<path d="M283.408 320.908C283.408 320.946 282.883 320.86 282.053 320.965C281.232 321.061 280.087 321.404 279.094 322.195C278.102 322.995 277.52 324.034 277.253 324.815C276.976 325.606 276.947 326.13 276.909 326.13C276.9 326.13 276.89 325.997 276.909 325.759C276.928 325.521 276.985 325.177 277.109 324.768C277.348 323.948 277.93 322.852 278.961 322.023C279.992 321.194 281.194 320.86 282.043 320.813C282.473 320.784 282.816 320.803 283.055 320.832C283.284 320.86 283.408 320.889 283.408 320.908Z" fill="#263238"/>
<path d="M281.471 313.275C281.528 313.275 281.614 314.962 281.642 317.039C281.681 319.126 281.652 320.813 281.595 320.813C281.537 320.813 281.452 319.126 281.423 317.049C281.385 314.971 281.413 313.275 281.471 313.275Z" fill="#263238"/>
<path d="M274.561 324.444C274.571 324.501 273.368 324.701 271.88 324.72C270.381 324.739 269.189 324.577 269.189 324.52C269.198 324.453 270.391 324.52 271.87 324.501C273.359 324.482 274.561 324.386 274.561 324.444Z" fill="#263238"/>
<path d="M278.169 324.425C278.217 324.472 278.073 324.682 277.949 324.958C277.825 325.235 277.758 325.482 277.701 325.473C277.644 325.473 277.606 325.187 277.749 324.863C277.883 324.548 278.131 324.386 278.169 324.425Z" fill="#263238"/>
<path d="M279.514 322.738C279.562 322.785 279.438 322.976 279.247 323.167C279.056 323.357 278.865 323.481 278.827 323.443C278.779 323.395 278.904 323.205 279.094 323.014C279.285 322.814 279.476 322.69 279.514 322.738Z" fill="#263238"/>
<path d="M281.452 321.956C281.442 322.023 281.194 322.014 280.927 322.118C280.66 322.204 280.459 322.357 280.411 322.318C280.364 322.28 280.516 322.023 280.85 321.909C281.194 321.785 281.471 321.899 281.452 321.956Z" fill="#263238"/>
<path d="M282.835 321.585C282.854 321.642 282.75 321.737 282.597 321.794C282.444 321.851 282.301 321.851 282.282 321.794C282.263 321.737 282.368 321.642 282.521 321.585C282.673 321.527 282.816 321.527 282.835 321.585Z" fill="#263238"/>
<g opacity="0.3">
<path opacity="0.3" d="M283.379 320.412L265.018 320.184L265.047 317.973L283.523 319.25L283.379 320.412Z" fill="black"/>
</g>
<path d="M305.606 154.184L298.248 176.312C296.263 182.287 291.033 183.307 284.725 183.307H243.794V174.139L281.194 168.803L290.107 146.064L305.606 154.184Z" fill="#FFBE9D"/>
<path d="M239.289 172.233L236.045 170.699C236.045 170.699 232.542 163.942 231.741 164.209C230.929 164.476 230.7 166.468 232.113 169.575L227.799 168.345C227.799 168.345 218.447 172.662 218.857 173.244C219.268 173.825 220.041 175.197 222.073 174.158C224.116 173.12 226.778 171.9 226.778 171.9L231.817 173.339L225.318 174.158L219.201 179.714C219.201 179.714 221.205 181.21 222.942 179.619L238.822 183.021L243.794 183.297V174.13L239.289 172.233Z" fill="#FFBE9D"/>
<path d="M222.942 179.619C223.009 179.667 223.304 179.19 223.877 178.571C224.163 178.266 224.555 177.942 225.032 177.675C225.49 177.418 226.091 177.303 226.75 177.227C229.393 176.913 231.531 176.55 231.512 176.417C231.493 176.284 229.336 176.426 226.683 176.741C226.015 176.817 225.337 176.951 224.803 177.284C224.287 177.599 223.887 177.98 223.61 178.342C223.075 179.076 222.894 179.59 222.942 179.619Z" fill="#EB996E"/>
<path d="M225.433 180.257C225.49 180.257 225.538 179.933 225.986 179.838C226.444 179.752 227.16 179.667 227.914 179.59C229.441 179.438 230.691 179.447 230.7 179.304C230.719 179.171 229.441 178.933 227.857 179.095C227.064 179.181 226.387 179.304 225.862 179.505C225.585 179.619 225.413 179.838 225.375 180C225.337 180.172 225.394 180.267 225.433 180.257Z" fill="#EB996E"/>
<path d="M340.162 63.2026L342.385 108.164L323.108 109.975L322.039 99.0634C322.039 99.0634 315.244 100.741 313.174 94.4604C311.857 90.4484 310.683 59.019 310.683 59.019L340.162 63.2026Z" fill="#FFBE9D"/>
<path d="M309.022 64.27C308.488 68.4726 314.376 70.9122 314.376 70.9122L315.407 80.8614C316.227 80.728 318.174 80.8328 318.174 80.8328C317.678 76.1632 323.7 77.078 324.31 80.261C324.902 83.3201 321.409 85.369 321.409 85.369C323.824 89.0665 324.797 91.0106 328.214 94.47C331.916 98.2152 333.911 98.5201 337.728 98.4058L341.937 98.2152C341.937 98.2152 343.435 94.6224 344.533 86.1409C345.058 82.0621 348.255 76.7064 347.348 70.0736C344.771 51.2141 326.668 53.2058 326.668 53.2058C317.296 53.4631 310.263 54.5019 309.022 64.27Z" fill="#263238"/>
<path d="M322.898 53.749C318.813 53.8539 314.576 54.1779 310.988 56.1315C307.4 58.0851 304.632 62.1067 305.367 66.1283C306.045 66.2522 306.732 66.376 307.409 66.4904C307.686 65.9853 307.972 65.4898 308.249 64.9847C308.24 65.7852 308.23 66.5857 308.22 67.3862C309.423 67.7197 310.616 68.0533 311.818 68.3868C312.353 65.3373 313.431 62.383 314.996 59.7052" fill="#263238"/>
<path d="M339.398 74.4383C339.427 74.4478 339.551 74.2001 339.713 73.7331C339.885 73.2661 340.076 72.5705 340.229 71.6842C340.544 69.9307 340.582 67.3862 339.771 64.7655C338.959 62.1353 337.49 60.0578 336.249 58.7903C335.629 58.1518 335.075 57.6849 334.665 57.3894C334.264 57.094 334.026 56.9606 334.006 56.9892C333.949 57.0559 334.837 57.7135 335.991 59.0286C337.146 60.3342 338.511 62.3735 339.303 64.918C340.086 67.4625 340.105 69.9212 339.895 71.6461C339.675 73.371 339.313 74.4097 339.398 74.4383Z" fill="#455A64"/>
<path d="M335.6 72.8659C335.648 72.885 336.03 72.0273 336.364 70.5597C336.698 69.0921 336.936 67.0051 336.736 64.7084C336.535 62.4117 335.934 60.3914 335.352 59.0095C334.77 57.6182 334.255 56.8463 334.207 56.8749C334.045 56.932 335.877 60.2389 336.24 64.756C336.659 69.2636 335.428 72.8373 335.6 72.8659Z" fill="#455A64"/>
<path d="M310.988 65.89C311.084 65.9091 311.246 64.7274 312.028 63.012C312.792 61.3062 314.3 59.0857 316.676 57.4752C319.052 55.8742 321.686 55.3024 323.547 55.2261C325.437 55.1404 326.591 55.4263 326.61 55.331C326.62 55.3024 326.334 55.1976 325.809 55.0927C325.284 54.9784 324.501 54.8735 323.537 54.8735C321.619 54.8545 318.871 55.3881 316.39 57.0654C313.918 58.7426 312.4 61.087 311.704 62.8786C311.341 63.7744 311.15 64.5368 311.064 65.0609C310.969 65.5851 310.959 65.89 310.988 65.89Z" fill="#455A64"/>
<path d="M338.797 50.1086C338.769 49.9847 337.308 50.4422 336.03 51.7382C334.732 53.0247 334.293 54.4828 334.407 54.5114C334.541 54.5686 335.161 53.2916 336.383 52.0908C337.585 50.871 338.864 50.242 338.797 50.1086Z" fill="#263238"/>
<path d="M334.293 50.1277C334.159 50.1753 334.445 51.176 334.388 52.4244C334.35 53.6728 333.987 54.6543 334.121 54.7115C334.236 54.7782 334.837 53.8157 334.884 52.4434C334.942 51.0807 334.407 50.0705 334.293 50.1277Z" fill="#455A64"/>
<path d="M309.079 149.362L305.93 160.006L285.946 150.972C286.662 148.742 289.964 138.812 296.291 123.05C299.813 114.273 307.657 107.936 317 106.382C323.537 105.296 330.657 104.448 336.135 104.505C347.338 104.629 363.829 111.624 366.043 122.592C367.732 130.96 366.1 145.74 366.1 163.704L364.64 198.011L307.228 199.955L309.079 149.362Z" fill="#9071AF"/>
<path d="M307.6 112.119C307.591 112.167 308.173 112.205 309.127 112.577C310.062 112.958 311.351 113.777 312.429 115.254C313.526 116.713 314.261 118.819 314.404 121.23C314.576 123.641 314.214 126.309 313.803 129.092C312.916 134.648 311.561 139.584 310.597 143.148C310.12 144.873 309.728 146.293 309.432 147.37C309.165 148.371 309.032 148.923 309.06 148.933C309.089 148.942 309.289 148.409 309.614 147.418C309.938 146.436 310.396 145.007 310.931 143.234C311.98 139.689 313.402 134.762 314.29 129.158C314.71 126.366 315.053 123.669 314.863 121.192C314.691 118.723 313.889 116.522 312.715 115.045C311.561 113.539 310.186 112.739 309.194 112.405C308.698 112.243 308.297 112.167 308.02 112.138C307.753 112.11 307.61 112.1 307.6 112.119Z" fill="#263238"/>
<path d="M286.576 148.256C286.548 148.313 287.617 148.942 289.392 149.867C291.167 150.791 293.648 152.021 296.435 153.269C299.221 154.527 301.788 155.575 303.659 156.29C305.529 157.005 306.703 157.395 306.732 157.329C306.76 157.262 305.625 156.757 303.792 155.966C301.96 155.175 299.422 154.069 296.645 152.821C293.867 151.573 291.367 150.4 289.554 149.552C287.731 148.714 286.605 148.199 286.576 148.256Z" fill="#263238"/>
<path d="M359.077 199.812L306.636 200.985C295.499 201.375 286.729 210.6 286.901 221.722L289.745 319.555L316.59 317.42L314.271 227.077L365.28 216.966L360.031 200.985L359.077 199.812Z" fill="#272B35"/>
<path d="M346.9 198.564L278.302 200.985C267.165 201.375 258.395 210.6 258.567 221.722L261.411 319.555L287.913 318.668L285.947 227.068L363.371 220.778L364.326 197.906L346.9 198.564Z" fill="#363B49"/>
<path d="M332.58 221.788H342.195V313.886C342.195 314.823 341.435 315.582 340.497 315.582H334.278C333.34 315.582 332.58 314.823 332.58 313.886V221.788Z" fill="#CCCBD1"/>
<path d="M310.953 223.099H363.812V224.545C363.812 228.175 360.864 231.109 357.239 231.109H317.537C313.901 231.109 310.963 228.165 310.963 224.545V223.099H310.953Z" fill="#95939F"/>
<path d="M332.58 304.649H342.195V325.985C342.195 326.922 341.435 327.681 340.497 327.681H334.278C333.34 327.681 332.58 326.922 332.58 325.985V304.649Z" fill="#313036"/>
<path d="M287.502 322.064C287.502 325.164 290.023 327.681 293.128 327.681C296.232 327.681 298.753 325.164 298.753 322.064C298.753 318.963 296.232 316.446 293.128 316.446C290.023 316.446 287.502 318.963 287.502 322.064Z" fill="#313036"/>
<path d="M376.012 322.064C376.012 325.164 378.533 327.681 381.637 327.681C384.742 327.681 387.263 325.164 387.263 322.064C387.263 318.963 384.742 316.446 381.637 316.446C378.533 316.446 376.012 318.963 376.012 322.064Z" fill="#313036"/>
<path d="M327.719 314.366H347.055V297.492H327.719V314.366Z" fill="#95939F"/>
<path d="M287.502 318.339H387.263V316.383C387.263 313.075 384.575 310.401 381.273 310.401H293.492C290.18 310.401 287.502 313.075 287.502 316.383V318.339Z" fill="#494851"/>
<path d="M337.383 233.002H334.049V295.993H337.383V233.002Z" fill="#95939F"/>
<path d="M378.83 145.018C376.061 144.929 373.806 147.27 373.956 150.098C374.745 164.159 371.826 198.462 359.009 210.169C343.322 224.474 298.881 222.529 298.881 222.529C298.881 222.529 291.539 231.728 306.223 233.775C320.907 235.823 362.279 234.453 372.277 224.921C381.962 215.684 387.713 191.489 383.378 149.381C383.14 146.963 381.211 145.095 378.83 145.018Z" fill="#998A99"/>
<path d="M205 143.406L241.993 143" stroke="white"/>
<path d="M205.813 147.059L242.806 146.654" stroke="white"/>
<path d="M206.626 151.119L244.026 150.307" stroke="white"/>
<path d="M207.439 155.178L244.839 154.366" stroke="white"/>
<path d="M208.252 159.238L245.652 158.426" stroke="white"/>
<path d="M209.065 163.297L246.465 162.485" stroke="white"/>
<path d="M50.8913 273.425C52.1782 279.649 51.7891 290.243 60.0268 291.917C62.249 292.365 64.3889 290.834 65.6758 289.07C67.3667 286.769 67.7708 281.89 67.7408 279.103C67.7184 276.892 66.9627 274.426 66.7233 272.2C66.4614 269.794 66.2444 267.381 65.9676 264.975C64.9575 256.3 60.4159 249.031 52.7393 244.705C52.1483 247.551 50.794 249.965 49.5969 252.692C49.0507 253.939 48.5644 255.254 48.2052 256.562C47.5767 258.878 48.3399 261.209 48.901 263.428C49.739 266.701 50.2104 270.115 50.8913 273.425Z" fill="#6E91DD"/>
<path d="M61.426 292.126C61.3662 291.603 61.3063 291.08 61.2315 290.565C60.2439 290.565 59.2188 290.004 58.3958 289.578C56.9592 288.839 55.7995 287.77 54.6772 286.635C54.6173 286.575 54.7221 286.478 54.7819 286.53C55.9043 287.472 57.0715 288.383 58.4033 289.003C59.1515 289.347 60.2364 289.915 61.1567 290.027C61.0669 289.407 60.9771 288.779 60.8723 288.159C59.8473 288.032 58.9046 287.359 58.0366 286.844C56.5627 285.97 55.2907 284.842 53.9739 283.751C53.9589 283.736 53.9739 283.713 53.9889 283.728C56.0015 285.185 58.2461 287.262 60.79 287.718C60.6554 286.941 60.5132 286.164 60.3486 285.394C60.3411 285.357 60.3336 285.312 60.3262 285.275C57.3782 284.528 55.388 282.227 53.1284 280.359C53.091 280.329 53.1284 280.269 53.1733 280.299C55.3955 282.025 57.483 283.99 60.2289 284.827C59.9895 283.728 59.7426 282.63 59.4956 281.532C56.832 280.553 54.6996 278.991 52.8366 276.817C52.8067 276.78 52.8591 276.728 52.889 276.765C54.8194 278.767 56.9443 279.918 59.3834 281.061C59.1365 279.978 58.8896 278.887 58.6577 277.803C57.5054 277.236 56.2933 276.892 55.2234 276.145C54.1759 275.413 53.2332 274.538 52.5523 273.44C52.5149 273.38 52.6047 273.328 52.6421 273.38C54.131 275.525 56.3831 276.19 58.5529 277.31C58.3434 276.294 58.1414 275.278 57.9693 274.254C55.5451 272.925 52.9189 271.692 51.5422 269.136C51.5272 269.114 51.5647 269.084 51.5796 269.114C53.0311 271.46 55.575 272.469 57.8795 273.746C57.8496 273.567 57.8197 273.38 57.7897 273.201C57.6401 272.252 57.5054 271.303 57.3632 270.347C55.9716 269.794 54.6473 269.002 53.3903 268.188C52.4999 267.612 51.5497 267.037 50.9736 266.133C50.9362 266.073 51.0185 266.021 51.0634 266.073C52.3652 267.934 55.2084 269.002 57.3109 269.936C57.1762 268.972 57.0415 268.016 56.8994 267.052C54.565 265.64 51.8265 264.863 50.39 262.322C50.3451 262.248 50.4573 262.181 50.5022 262.248C51.9911 264.564 54.6024 265.281 56.832 266.596C56.7497 265.998 56.6599 265.408 56.5702 264.81C54.0562 263.884 51.1232 261.785 49.7989 259.513C49.7241 259.386 49.9036 259.274 49.9859 259.394C51.3402 261.389 54.0562 263.555 56.4953 264.347C56.3457 263.383 56.1886 262.42 56.0165 261.463C56.0015 261.433 55.9865 261.411 55.9791 261.381C54.8493 261.052 53.7344 260.253 52.7543 259.655C51.5796 258.93 50.4573 258.086 49.7241 256.898C49.6418 256.764 49.8587 256.644 49.9336 256.779C51.0484 258.774 53.7045 260.103 55.9043 260.866C55.8369 260.514 55.7771 260.163 55.7097 259.82C55.605 259.297 55.5002 258.774 55.3955 258.251C54.4976 257.63 53.3529 257.332 52.4475 256.682C51.6619 256.114 50.9736 255.426 50.3077 254.731C50.2403 254.664 50.3376 254.552 50.4124 254.619C51.3252 255.479 52.2605 256.293 53.3678 256.891C53.9888 257.219 54.6922 257.414 55.2982 257.772C55.1261 256.921 54.9466 256.061 54.7819 255.21C54.7745 255.21 54.7595 255.202 54.752 255.202C54.7445 255.202 54.7296 255.21 54.7221 255.21C54.6622 255.225 54.6099 255.202 54.5725 255.165C53.3529 254.858 52.4101 253.805 51.5946 252.908C51.5721 252.886 51.6021 252.856 51.6245 252.879C52.485 253.678 53.4651 254.56 54.6248 254.896C54.6323 254.896 54.6323 254.888 54.6398 254.888C54.6697 254.881 54.6996 254.881 54.7296 254.873C54.5949 254.179 54.4677 253.484 54.3555 252.781C54.2657 252.766 54.1909 252.692 54.2133 252.602C53.5624 252.169 52.9788 251.616 52.4251 251.07C52.3802 251.033 52.4401 250.966 52.4849 251.003C53.0611 251.496 53.6297 251.907 54.2732 252.266C54.0412 250.824 53.8691 249.374 53.7868 247.903C53.7793 247.768 53.9814 247.768 53.9963 247.903C54.1235 249.315 54.333 250.712 54.5725 252.101C55.2458 251.22 56.0015 250.308 56.413 249.292C56.4355 249.24 56.5178 249.262 56.5028 249.315C56.3008 249.942 55.9566 250.495 55.6124 251.048C55.3057 251.549 55.0588 252.131 54.6622 252.572C54.7969 253.319 54.9465 254.066 55.0962 254.806C55.9192 254.672 56.6674 254.522 57.3483 253.925C58.1788 253.2 58.6502 252.214 58.7325 251.115C58.74 250.981 58.9569 250.981 58.942 251.115C58.8522 252.131 58.4407 253.088 57.7448 253.85C57.0116 254.649 56.1512 254.903 55.1635 255.105C55.3431 255.964 55.5302 256.823 55.7172 257.675C56.4654 257.227 57.1537 256.644 57.8271 256.114C58.912 255.254 59.548 254.216 60.4908 253.245C60.588 253.147 60.7377 253.289 60.6479 253.387C59.765 254.321 59.1739 255.337 58.1638 256.173C57.4456 256.779 56.645 257.541 55.7845 257.982C55.792 258.026 55.807 258.071 55.8145 258.116C55.822 258.124 55.8369 258.131 55.8444 258.138C55.9117 258.206 55.9042 258.273 55.8668 258.333C56.0464 259.155 56.226 259.976 56.4055 260.798C56.413 260.851 56.428 260.903 56.4355 260.955C58.3509 260.081 61.2165 258.557 61.4709 256.338C61.4934 256.129 61.8076 256.188 61.7627 256.405C61.1941 258.915 58.4332 260.029 56.5253 261.403C56.7123 262.337 56.8844 263.264 57.0415 264.205C58.2761 263.779 59.4582 263.256 60.4982 262.427C61.441 261.68 62.7803 260.768 63.2067 259.61C63.2217 259.573 63.2741 259.595 63.2591 259.633C62.8626 260.791 61.6655 261.583 60.79 262.375C59.6827 263.376 58.5454 264.228 57.1238 264.624C57.1313 264.661 57.1388 264.706 57.1238 264.751C57.2211 265.341 57.3184 265.939 57.4081 266.529C59.7351 266.35 62.9898 264.586 64.1794 262.831C64.1869 262.823 64.1944 262.831 64.1944 262.838C63.3863 264.183 62.1593 264.967 60.7751 265.647C59.7425 266.155 58.6277 266.753 57.4605 266.843C57.6251 267.941 57.7897 269.047 57.9543 270.145C58.9644 269.772 60.0343 269.592 61.0369 269.189C62.5259 268.599 63.6557 267.53 64.5311 266.215C64.5835 266.133 64.7181 266.2 64.6658 266.282C63.0571 268.838 60.7377 269.592 58.0217 270.549C58.1564 271.453 58.2985 272.357 58.4482 273.253C60.6703 272.827 63.5435 271.475 64.6732 269.547C64.7555 269.405 64.98 269.525 64.8977 269.667C64.1869 270.9 62.9598 271.684 61.7178 272.312C60.82 272.768 59.5779 273.515 58.508 273.597C58.5155 273.627 58.5155 273.657 58.523 273.687C58.74 274.987 59.0018 276.272 59.2787 277.557C61.7627 276.937 63.3639 275.099 65.1745 273.38C65.3017 273.261 65.4963 273.44 65.3691 273.567C63.5285 275.375 61.9124 277.273 59.361 277.938C59.5929 278.984 59.8323 280.03 60.0867 281.068C62.2042 280.478 64.2916 278.976 65.6609 277.258C65.7581 277.138 65.9302 277.303 65.833 277.422C64.4114 279.29 62.3613 280.702 60.1765 281.472C60.4534 282.585 60.7377 283.706 61.022 284.819C63.1918 284.49 64.8678 283.131 66.2071 281.412C66.237 281.375 66.3118 281.427 66.2819 281.464C65.0922 283.116 63.2965 285.021 61.1342 285.223C61.224 285.581 61.3213 285.932 61.4111 286.291C61.4634 286.508 61.5233 286.724 61.5831 286.941C63.2217 286.463 64.7406 285.873 66.0948 284.767C66.1322 284.737 66.1771 284.797 66.1397 284.827C64.8528 285.985 63.319 286.762 61.6729 287.262C61.8525 287.927 62.047 288.622 62.2416 289.317C62.6456 289.13 63.0422 288.921 63.4836 288.787C64.2991 288.54 64.8229 288.024 65.5337 287.599C65.601 287.561 65.6684 287.651 65.6085 287.696C64.9875 288.099 64.546 288.622 63.8352 288.891C63.3115 289.085 62.8102 289.339 62.3014 289.564C63.0496 292.343 63.708 295.294 63.3489 297.962C63.2666 298.552 62.279 298.709 62.1219 298.081C61.6206 296.168 61.643 294.106 61.426 292.126Z" fill="#83A1E2"/>
<path d="M76.9737 271.647C75.5072 277.826 70.6813 287.27 77.4376 292.261C79.2557 293.606 81.852 293.12 83.7674 292.066C86.2738 290.692 88.698 286.44 89.8503 283.9C90.7631 281.883 91.1222 279.335 91.8405 277.213C92.6186 274.919 93.4491 272.641 94.2123 270.339C96.9582 262.046 95.9182 253.551 90.793 246.386C89.0497 248.717 86.8051 250.331 84.5679 252.303C83.5504 253.2 82.5478 254.186 81.6724 255.225C80.1236 257.055 79.8243 259.498 79.3978 261.74C78.7694 265.057 77.7518 268.352 76.9737 271.647Z" fill="#6E91DD"/>
<path d="M78.6122 293.038C78.7768 292.537 78.9415 292.037 79.0986 291.536C78.2082 291.118 77.5124 290.184 76.9438 289.444C75.9561 288.166 75.3576 286.709 74.8114 285.208C74.7814 285.125 74.9161 285.081 74.9535 285.155C75.5745 286.485 76.2404 287.8 77.1907 288.928C77.7219 289.556 78.4701 290.527 79.2557 291.013C79.4428 290.415 79.6148 289.81 79.7869 289.205C78.9115 288.659 78.3429 287.651 77.7743 286.821C76.8091 285.409 76.1357 283.848 75.4025 282.301C75.395 282.286 75.4174 282.271 75.4324 282.286C76.637 284.46 77.7967 287.285 79.9066 288.772C80.1161 288.009 80.3107 287.247 80.4902 286.478C80.4977 286.44 80.5052 286.396 80.5202 286.358C78.1633 284.446 77.3328 281.509 76.0758 278.872C76.0534 278.827 76.1207 278.79 76.1432 278.834C77.4301 281.33 78.4925 283.997 80.6249 285.91C80.8718 284.812 81.1112 283.713 81.3507 282.615C79.3455 280.605 78.081 278.289 77.3104 275.54C77.2954 275.495 77.3627 275.465 77.3777 275.517C78.2755 278.147 79.7196 280.082 81.4554 282.152C81.6874 281.061 81.9268 279.978 82.1812 278.894C81.3731 277.893 80.4229 277.071 79.772 275.95C79.1285 274.845 78.6422 273.649 78.4925 272.372C78.4851 272.304 78.5823 272.289 78.5973 272.357C79.0462 274.927 80.8045 276.481 82.2934 278.416C82.5328 277.407 82.7797 276.399 83.0566 275.398C81.4255 273.171 79.5625 270.945 79.3979 268.053C79.3979 268.023 79.4353 268.016 79.4428 268.046C79.772 270.78 81.6499 272.768 83.1987 274.897C83.2511 274.718 83.296 274.538 83.3484 274.359C83.6177 273.433 83.8946 272.514 84.1714 271.595C83.1464 270.504 82.2785 269.234 81.4854 267.963C80.9242 267.067 80.3032 266.148 80.161 265.079C80.1535 265.012 80.2508 264.997 80.2658 265.064C80.6548 267.298 82.7797 269.465 84.2911 271.199C84.5754 270.272 84.8597 269.346 85.1366 268.412C83.6177 266.155 81.4629 264.287 81.2309 261.381C81.2235 261.291 81.3507 261.276 81.3656 261.366C81.7323 264.093 83.8048 265.842 85.2638 267.978C85.4359 267.403 85.608 266.828 85.78 266.252C83.8871 264.355 82.1213 261.209 81.8819 258.594C81.8669 258.452 82.0839 258.422 82.1064 258.564C82.4879 260.94 84.0442 264.056 85.9147 265.797C86.1841 264.863 86.4534 263.921 86.7003 262.98C86.6929 262.95 86.6929 262.92 86.7003 262.89C85.8175 262.113 85.1366 260.918 84.5081 259.961C83.7449 258.811 83.0865 257.571 82.9294 256.181C82.9144 256.024 83.1539 256.009 83.1688 256.158C83.3409 258.437 85.1815 260.768 86.85 262.382C86.9397 262.039 87.0295 261.695 87.1118 261.344C87.239 260.828 87.3662 260.305 87.4859 259.79C86.9323 258.848 86.0195 258.101 85.4808 257.122C85.0094 256.278 84.6802 255.366 84.3585 254.447C84.3285 254.358 84.4632 254.298 84.5006 254.395C84.9645 255.553 85.4658 256.696 86.2215 257.698C86.6405 258.258 87.2016 258.729 87.5982 259.311C87.8002 258.46 88.0022 257.615 88.2117 256.771C88.2042 256.764 88.1967 256.756 88.1893 256.749C88.1818 256.749 88.1668 256.741 88.1593 256.741C88.0995 256.726 88.0621 256.681 88.0471 256.637C87.0669 255.845 86.6629 254.492 86.2963 253.334C86.2888 253.304 86.3262 253.289 86.3412 253.319C86.7901 254.403 87.2989 255.613 88.2042 256.412C88.2117 256.412 88.2117 256.412 88.2192 256.412C88.2491 256.42 88.279 256.427 88.3015 256.435C88.4736 255.748 88.6531 255.06 88.8402 254.38C88.7654 254.328 88.728 254.231 88.7878 254.156C88.3838 253.491 88.0845 252.737 87.8152 252.012C87.7927 251.959 87.875 251.922 87.8974 251.974C88.2117 252.662 88.5484 253.274 88.9898 253.872C89.3939 252.468 89.8428 251.078 90.389 249.711C90.4414 249.584 90.6284 249.673 90.5835 249.793C90.1046 251.123 89.7006 252.482 89.334 253.842C90.3216 253.327 91.3841 252.819 92.1847 252.072C92.2296 252.034 92.2894 252.087 92.252 252.131C91.8031 252.617 91.2569 252.968 90.7107 253.327C90.2169 253.648 89.753 254.074 89.2068 254.313C89.0123 255.045 88.8327 255.785 88.6606 256.525C89.4612 256.749 90.2094 256.928 91.0698 256.674C92.1248 256.368 92.9703 255.673 93.509 254.709C93.5763 254.589 93.7708 254.679 93.696 254.799C93.1798 255.68 92.4091 256.383 91.4589 256.771C90.4563 257.182 89.5659 257.055 88.5858 256.823C88.3838 257.675 88.1893 258.534 88.0022 259.386C88.8626 259.296 89.738 259.057 90.576 258.856C91.9228 258.527 92.9404 257.862 94.2048 257.376C94.332 257.331 94.4143 257.518 94.2871 257.571C93.09 258.049 92.1248 258.714 90.8603 259.057C89.9475 259.304 88.9075 259.655 87.9349 259.7C87.9274 259.745 87.9124 259.79 87.9049 259.834C87.9124 259.849 87.9124 259.857 87.9199 259.872C87.9498 259.961 87.9124 260.021 87.8526 260.051C87.673 260.873 87.4859 261.695 87.2989 262.509C87.2839 262.562 87.2765 262.614 87.2615 262.666C89.3714 262.681 92.6111 262.509 93.7783 260.604C93.8906 260.425 94.1524 260.611 94.0178 260.783C92.4391 262.823 89.4612 262.666 87.1567 263.107C86.9323 264.026 86.6928 264.945 86.4459 265.864C87.7478 265.998 89.0347 266.021 90.3291 265.707C91.5038 265.423 93.0975 265.169 93.9729 264.295C94.0028 264.265 94.0402 264.31 94.0103 264.34C93.1648 265.221 91.7432 265.438 90.6134 265.782C89.1844 266.223 87.8002 266.514 86.3412 266.275C86.3337 266.32 86.3187 266.357 86.2888 266.387C86.1242 266.962 85.9596 267.545 85.795 268.12C87.9798 268.942 91.6759 268.711 93.5015 267.62C93.509 267.612 93.5165 267.627 93.509 267.635C92.2071 268.509 90.7631 268.703 89.2218 268.74C88.0695 268.763 86.8051 268.838 85.7052 268.427C85.391 269.495 85.0767 270.564 84.755 271.624C85.8324 271.707 86.8724 271.998 87.9498 272.058C89.551 272.147 91.0249 271.654 92.3717 270.84C92.454 270.788 92.5438 270.907 92.4615 270.959C89.9176 272.603 87.5009 272.304 84.6353 272.028C84.3734 272.902 84.1265 273.784 83.8796 274.658C86.0718 275.211 89.2517 275.196 91.0848 273.918C91.2195 273.821 91.3766 274.023 91.2419 274.12C90.0747 274.942 88.6382 275.136 87.239 275.181C86.229 275.211 84.7924 275.375 83.7898 274.994C83.7823 275.024 83.7749 275.054 83.7674 275.084C83.4157 276.354 83.109 277.632 82.8172 278.909C85.3311 279.387 87.5608 278.401 89.9251 277.602C90.0897 277.549 90.1869 277.796 90.0223 277.856C87.5907 278.722 85.3236 279.753 82.7274 279.283C82.4954 280.329 82.271 281.375 82.0615 282.428C84.2313 282.787 86.7602 282.309 88.728 281.322C88.8701 281.255 88.9524 281.472 88.8177 281.547C86.7377 282.637 84.2836 283.056 81.9792 282.832C81.7547 283.96 81.5452 285.088 81.3357 286.224C83.4456 286.836 85.5331 286.313 87.4785 285.32C87.5233 285.297 87.5682 285.372 87.5233 285.402C85.7501 286.396 83.311 287.367 81.2684 286.642C81.201 287.001 81.1337 287.367 81.0664 287.726C81.029 287.942 80.9841 288.166 80.9467 288.39C82.6376 288.645 84.2612 288.749 85.9521 288.323C85.997 288.308 86.012 288.383 85.9671 288.398C84.3136 288.906 82.5927 288.958 80.8868 288.727C80.7671 289.407 80.6549 290.116 80.5277 290.826C80.9766 290.826 81.418 290.804 81.8819 290.871C82.7274 290.991 83.4232 290.751 84.2462 290.662C84.3211 290.654 84.351 290.766 84.2687 290.781C83.5354 290.886 82.9144 291.177 82.1587 291.118C81.5976 291.073 81.0439 291.095 80.4827 291.088C79.9814 293.919 79.338 296.878 77.879 299.149C77.5573 299.65 76.5921 299.374 76.7193 298.739C77.0859 296.788 77.9763 294.921 78.6122 293.038Z" fill="#83A1E2"/>
<path d="M62.6905 266.85C62.3388 274.703 58.6577 287.3 68.0401 291.805C70.5691 293.015 73.6068 291.827 75.6868 290.101C78.4103 287.853 80.378 282.122 81.1861 278.767C81.8295 276.107 81.6724 272.925 82.054 270.175C82.473 267.209 82.9444 264.243 83.3409 261.276C84.755 250.562 81.5228 240.468 73.6292 232.952C72.0505 236.187 69.6937 238.668 67.4341 241.589C66.4016 242.919 65.4139 244.346 64.5909 245.81C63.1319 248.396 63.3339 251.429 63.3414 254.261C63.3414 258.437 62.8775 262.674 62.6905 266.85Z" fill="#8FAAE5"/>
<path d="M69.6488 292.485C69.7385 291.842 69.8208 291.192 69.8957 290.55C68.7135 290.251 67.651 289.265 66.7906 288.503C65.2942 287.18 64.2243 285.551 63.2217 283.848C63.1693 283.758 63.3189 283.669 63.3788 283.751C64.4413 285.223 65.5636 286.665 66.9777 287.823C67.7633 288.465 68.9005 289.474 69.9705 289.885C70.0528 289.108 70.1276 288.338 70.1949 287.561C69.0053 287.098 68.0775 286.007 67.1947 285.125C65.6908 283.631 64.5086 281.89 63.2666 280.179C63.2516 280.157 63.2815 280.135 63.2965 280.157C65.2643 282.518 67.3293 285.686 70.2398 287.001C70.3147 286.03 70.3745 285.051 70.4194 284.079C70.4194 284.027 70.4194 283.975 70.4269 283.93C67.1198 282.144 65.4289 278.775 63.289 275.853C63.2516 275.809 63.3189 275.741 63.3564 275.794C65.4962 278.536 67.4042 281.524 70.4493 283.355C70.5017 281.958 70.5316 280.568 70.569 279.178C67.666 277.191 65.586 274.68 64.0148 271.505C63.9849 271.453 64.0671 271.408 64.0971 271.46C65.803 274.449 68.0027 276.473 70.584 278.58C70.6214 277.206 70.6514 275.823 70.7037 274.449C69.4916 273.418 68.1449 272.641 67.0899 271.423C66.0499 270.227 65.1895 268.89 64.7106 267.373C64.6882 267.291 64.8079 267.254 64.8303 267.336C65.9676 270.354 68.4666 271.834 70.7336 273.844C70.786 272.558 70.8609 271.281 70.9581 269.996C68.4591 267.665 65.6758 265.386 64.8004 261.912C64.7929 261.874 64.8453 261.859 64.8528 261.897C65.8853 265.147 68.6237 267.127 71.0105 269.361C71.0329 269.129 71.0479 268.905 71.0629 268.673C71.1751 267.493 71.2948 266.305 71.422 265.124C69.9181 264.033 68.5714 262.689 67.3144 261.336C66.424 260.372 65.4588 259.401 65.0323 258.131C65.0024 258.049 65.1221 258.004 65.152 258.086C66.1472 260.709 69.2298 262.86 71.4744 264.609C71.6016 263.413 71.7288 262.225 71.856 261.03C69.4841 258.632 66.4315 256.868 65.4813 253.387C65.4513 253.282 65.6084 253.237 65.6384 253.334C66.7158 256.562 69.6413 258.213 71.9083 260.47C71.9832 259.73 72.0655 258.99 72.1328 258.251C69.3944 256.383 66.5213 252.968 65.6159 249.838C65.5636 249.666 65.8179 249.584 65.8778 249.748C66.8954 252.55 69.4991 255.972 72.1852 257.66C72.2974 256.457 72.4021 255.262 72.4919 254.059C72.477 254.022 72.4695 253.984 72.4695 253.947C71.2125 253.207 70.1126 251.915 69.125 250.899C67.9354 249.673 66.843 248.321 66.3267 246.67C66.2669 246.49 66.5662 246.408 66.6111 246.595C67.3443 249.322 70.1276 251.728 72.5294 253.312C72.5593 252.871 72.5892 252.43 72.6116 251.989C72.6491 251.332 72.679 250.674 72.7089 250.009C71.8186 248.993 70.5391 248.291 69.6563 247.23C68.8856 246.311 68.2721 245.28 67.6735 244.241C67.6136 244.137 67.7633 244.04 67.8306 244.144C68.6611 245.444 69.5365 246.715 70.6888 247.761C71.3322 248.343 72.1253 248.784 72.7314 249.404C72.7763 248.328 72.8286 247.253 72.8885 246.169C72.8735 246.162 72.866 246.154 72.8511 246.154C72.8361 246.154 72.8211 246.154 72.8137 246.154C72.7388 246.147 72.679 246.109 72.6491 246.057C71.2724 245.317 70.4718 243.771 69.761 242.448C69.746 242.418 69.7909 242.389 69.8059 242.418C70.599 243.636 71.5043 244.989 72.7912 245.751C72.7987 245.751 72.7987 245.751 72.8062 245.751C72.8436 245.751 72.881 245.758 72.9184 245.758C72.9708 244.884 73.0306 244.01 73.098 243.136C72.9932 243.091 72.9259 242.979 72.9783 242.874C72.3348 242.157 71.7961 241.313 71.2948 240.498C71.2574 240.438 71.3472 240.379 71.3846 240.438C71.9233 241.208 72.4845 241.866 73.1504 242.493C73.315 240.693 73.5394 238.899 73.8911 237.114C73.921 236.949 74.1679 237.009 74.1455 237.173C73.8686 238.907 73.6891 240.64 73.5619 242.389C74.6393 241.529 75.814 240.67 76.622 239.579C76.6669 239.52 76.7567 239.572 76.7193 239.639C76.2853 240.334 75.7017 240.887 75.1181 241.455C74.5944 241.963 74.123 242.583 73.517 243.001C73.4496 243.935 73.4047 244.877 73.3598 245.818C74.3849 245.908 75.3351 245.952 76.3227 245.444C77.5348 244.824 78.4028 243.786 78.8367 242.493C78.8891 242.336 79.1435 242.404 79.0911 242.56C78.6721 243.756 77.894 244.779 76.824 245.482C75.7017 246.214 74.5944 246.259 73.3449 246.206C73.3 247.29 73.2626 248.373 73.2252 249.464C74.2577 249.158 75.2603 248.665 76.233 248.224C77.7967 247.514 78.8741 246.468 80.3032 245.586C80.4453 245.497 80.5875 245.713 80.4453 245.803C79.1061 246.662 78.081 247.693 76.622 248.396C75.5745 248.904 74.3849 249.576 73.2177 249.845C73.2177 249.905 73.2177 249.957 73.2102 250.017C73.2177 250.032 73.2327 250.039 73.2401 250.054C73.3 250.151 73.2701 250.241 73.2027 250.293C73.1728 251.332 73.1354 252.37 73.098 253.409C73.098 253.476 73.0905 253.536 73.0905 253.603C75.6568 253.133 79.555 252.176 80.5351 249.584C80.6249 249.337 80.9915 249.501 80.8643 249.748C79.4203 252.595 75.7616 253.088 73.0606 254.156C73.0007 255.329 72.9259 256.502 72.8361 257.668C74.4522 257.533 76.0235 257.257 77.5199 256.584C78.8816 255.972 80.7596 255.292 81.6275 254.022C81.6575 253.984 81.7098 254.029 81.6874 254.066C80.8643 255.337 79.1809 255.927 77.894 256.607C76.2629 257.473 74.6393 258.146 72.8137 258.198C72.8137 258.251 72.8062 258.303 72.7763 258.348C72.7164 259.087 72.6491 259.827 72.5742 260.567C75.4249 261.06 79.8618 259.924 81.8295 258.176C81.837 258.168 81.852 258.183 81.8445 258.191C80.4603 259.558 78.7544 260.126 76.8914 260.522C75.4997 260.821 73.9734 261.202 72.5443 260.955C72.4096 262.322 72.2675 263.697 72.1328 265.065C73.4571 264.923 74.7964 265.027 76.1207 264.848C78.081 264.586 79.772 263.652 81.216 262.337C81.3058 262.255 81.4405 262.375 81.3507 262.464C78.6422 265.05 75.6344 265.244 72.0804 265.573C71.9682 266.693 71.8634 267.822 71.7737 268.95C74.5719 269.114 78.4327 268.359 80.3631 266.387C80.5052 266.245 80.7372 266.454 80.595 266.596C79.3679 267.866 77.662 268.427 75.9711 268.808C74.7515 269.077 73.0381 269.607 71.7288 269.376C71.7288 269.413 71.7213 269.45 71.7213 269.488C71.5941 271.109 71.5043 272.738 71.4519 274.359C74.6168 274.367 77.1009 272.648 79.7944 271.131C79.9815 271.027 80.161 271.303 79.974 271.415C77.2206 273.029 74.7066 274.815 71.437 274.837C71.3921 276.16 71.3696 277.49 71.3547 278.812C74.0706 278.745 77.041 277.579 79.2033 275.928C79.3604 275.809 79.5101 276.063 79.3604 276.182C77.0859 277.99 74.1978 279.066 71.3472 279.328C71.3397 280.747 71.3397 282.174 71.3472 283.594C74.0557 283.855 76.4724 282.735 78.6048 281.076C78.6571 281.039 78.7245 281.121 78.6721 281.166C76.7417 282.787 74.0108 284.528 71.3547 284.117C71.3547 284.573 71.3622 285.028 71.3622 285.477C71.3622 285.753 71.3696 286.03 71.3696 286.313C73.4796 286.231 75.4848 285.985 77.4376 285.073C77.4899 285.051 77.5273 285.133 77.475 285.155C75.582 286.149 73.502 286.62 71.3771 286.732C71.3921 287.591 71.4145 288.473 71.4295 289.369C71.9757 289.265 72.5069 289.138 73.083 289.108C74.138 289.063 74.9236 288.6 75.9037 288.308C75.9935 288.278 76.0534 288.413 75.9636 288.443C75.0957 288.742 74.4073 289.235 73.4796 289.339C72.7912 289.414 72.1178 289.571 71.437 289.683C71.4893 293.247 71.3846 296.99 70.1426 300.083C69.8657 300.771 68.6237 300.659 68.6312 299.852C68.6536 297.394 69.3121 294.921 69.6488 292.485Z" fill="#668BDB"/>
<path d="M57.5129 295.429L57.8571 301.809L58.4033 311.746L59.2936 328.079H81.433L82.3234 311.746L82.8695 301.809L83.2137 295.429H57.5129Z" fill="#363B49"/>
<path d="M57.8571 301.809L57.9319 303.087L57.9992 304.409L58.4033 311.746H82.3234L82.7274 304.409L82.7947 303.087L82.8695 301.809H57.8571Z" fill="#272B35"/>
<path d="M57.9319 303.087L57.9992 304.409H82.7273L82.7947 303.087H57.9319Z" fill="#8FAAE5"/>
<path d="M176.876 112.674L134.435 136.138L136.037 139.134L178.095 115.224L176.876 112.674Z" fill="#3C6BD2"/>
<path d="M178.965 110.458L177.014 107.47L175.876 108.168L177.624 111.18L178.965 110.458Z" fill="#3C6BD2"/>
<path d="M139.257 132.427L137.078 133.686L144.184 178.965L147.55 179.006L139.257 132.427Z" fill="#3C6BD2"/>
<path d="M157.33 183.682C157.33 183.682 152.16 178.454 145.224 178.835C138.289 179.217 134.736 183.65 134.736 183.65L157.33 183.682Z" fill="#3C6BD2"/>
<path d="M178.925 130.982L195.73 121.296L190.876 112.91C188.201 108.274 182.266 106.691 177.624 109.362C172.981 112.033 171.396 117.96 174.071 122.595L178.925 130.982Z" fill="#3C6BD2"/>
<path d="M347.764 1.12097C347.019 1.12097 346.433 1.38709 346.007 1.91932C345.58 2.45156 345.367 3.18611 345.367 4.12299C345.367 5.10361 345.571 5.84546 345.98 6.34853C346.392 6.8516 346.987 7.10314 347.764 7.10314C348.1 7.10314 348.426 7.07033 348.74 7.00471C349.055 6.93545 349.382 6.84796 349.722 6.74224V7.86321C349.1 8.10016 348.395 8.21864 347.607 8.21864C346.446 8.21864 345.555 7.86503 344.933 7.15782C344.311 6.44696 344 5.4317 344 4.11205C344 3.28089 344.15 2.55363 344.45 1.93026C344.754 1.30689 345.191 0.829337 345.763 0.497602C346.334 0.165867 347.005 0 347.775 0C348.585 0 349.333 0.171336 350.02 0.514007L349.554 1.60217C349.286 1.47458 349.002 1.36339 348.702 1.26861C348.406 1.17019 348.093 1.12097 347.764 1.12097Z" fill="#EE6FC8"/>
<path d="M354.625 0.114831L351.675 8.10928H350.471L353.426 0.114831H354.625Z" fill="#EE6FC8"/>
<path d="M359.143 1.12097C358.398 1.12097 357.812 1.38709 357.386 1.91932C356.959 2.45156 356.746 3.18611 356.746 4.12299C356.746 5.10361 356.95 5.84546 357.359 6.34853C357.771 6.8516 358.366 7.10314 359.143 7.10314C359.479 7.10314 359.805 7.07033 360.119 7.00471C360.434 6.93545 360.761 6.84796 361.101 6.74224V7.86321C360.479 8.10016 359.774 8.21864 358.986 8.21864C357.825 8.21864 356.934 7.86503 356.312 7.15782C355.69 6.44696 355.379 5.4317 355.379 4.11205C355.379 3.28089 355.529 2.55363 355.829 1.93026C356.133 1.30689 356.57 0.829337 357.142 0.497602C357.713 0.165867 358.384 0 359.154 0C359.964 0 360.712 0.171336 361.399 0.514007L360.933 1.60217C360.665 1.47458 360.381 1.36339 360.081 1.26861C359.785 1.17019 359.472 1.12097 359.143 1.12097Z" fill="#EE6FC8"/>
<path d="M364.442 4.64793H362.283V3.6746H364.442V1.44359H365.418V3.6746H367.582V4.64793H365.418V6.86801H364.442V4.64793Z" fill="#EE6FC8"/>
<path d="M370.788 4.64793H368.629V3.6746H370.788V1.44359H371.764V3.6746H373.928V4.64793H371.764V6.86801H370.788V4.64793Z" fill="#EE6FC8"/>
<path d="M316.386 30.4715H315.265V27.1037H312.116V30.4715H311V23H312.116V26.0561H315.265V23H316.386V30.4715Z" fill="#8080EA"/>
<path d="M320.543 30.4715H319.427V24.0476H317.418V23H322.552V24.0476H320.543V30.4715Z" fill="#8080EA"/>
<path d="M326.555 30.4715L324.574 24.2316H324.537C324.59 25.1583 324.616 26.0271 324.616 26.838V30.4715H323.603V23H325.177L327.073 28.9435H327.101L329.054 23H330.633V30.4715H329.558V26.7766C329.558 26.4053 329.566 25.9215 329.582 25.3253C329.6 24.729 329.616 24.3679 329.628 24.2418H329.591L327.54 30.4715H326.555Z" fill="#8080EA"/>
<path d="M332.431 30.4715V23H333.548V29.4238H336.439V30.4715H332.431Z" fill="#8080EA"/>
<path d="M95.9382 165.565H44.7169V188.182H95.9382V165.565Z" fill="#EE6FC8"/>
<path d="M408.23 38H374V62.3571H408.23V38Z" fill="#8080EA"/>
<path d="M397.071 91.4958C396.067 91.4958 395.278 91.8508 394.703 92.561C394.129 93.2712 393.841 94.2514 393.841 95.5015C393.841 96.81 394.117 97.7998 394.667 98.4711C395.222 99.1424 396.024 99.478 397.071 99.478C397.524 99.478 397.962 99.4342 398.386 99.3467C398.81 99.2542 399.251 99.1375 399.709 98.9964V100.492C398.871 100.808 397.921 100.966 396.859 100.966C395.295 100.966 394.095 100.495 393.257 99.551C392.419 98.6024 392 97.2477 392 95.4869C392 94.3778 392.202 93.4074 392.606 92.5756C393.016 91.7438 393.605 91.1066 394.375 90.664C395.144 90.2213 396.048 90 397.085 90C398.177 90 399.185 90.2286 400.11 90.6859L399.482 92.1378C399.122 91.9676 398.739 91.8192 398.335 91.6928C397.935 91.5614 397.514 91.4958 397.071 91.4958Z" fill="#9071AF"/>
<path d="M407.826 94.4727L407.424 96.5449H409.397V97.7706H407.183L406.599 100.821H405.298L405.883 97.7706H404.071L403.486 100.821H402.215L402.77 97.7706H400.943V96.5449H403.011L403.428 94.4727H401.499V93.2469H403.64L404.224 90.1678H405.539L404.955 93.2469H406.796L407.381 90.1678H408.652L408.067 93.2469H409.909V94.4727H407.826ZM404.297 96.5449H406.124L406.54 94.4727H404.714L404.297 96.5449Z" fill="#9071AF"/>
<path d="M48.699 181.432C48.4082 181.432 48.1649 181.395 47.9691 181.322V180.434C48.2183 180.496 48.4349 180.527 48.6189 180.527C49.2005 180.527 49.4913 180.161 49.4913 179.431V173.173H50.5595V179.396C50.5595 180.055 50.4008 180.559 50.0833 180.906C49.7687 181.257 49.3073 181.432 48.699 181.432Z" fill="white"/>
<path d="M55.2152 179.63L55.006 178.95H54.9704C54.733 179.247 54.4941 179.45 54.2538 179.559C54.0134 179.665 53.7048 179.718 53.328 179.718C52.8443 179.718 52.466 179.589 52.193 179.33C51.923 179.07 51.788 178.704 51.788 178.23C51.788 177.726 51.9764 177.346 52.3533 177.09C52.7301 176.834 53.3043 176.694 54.0758 176.671L54.9259 176.644V176.384C54.9259 176.071 54.8517 175.839 54.7033 175.686C54.5579 175.53 54.3309 175.452 54.0223 175.452C53.7701 175.452 53.5283 175.488 53.2968 175.562C53.0654 175.636 52.8429 175.723 52.6292 175.823L52.2909 175.081C52.558 174.942 52.8503 174.838 53.1678 174.767C53.4853 174.693 53.785 174.657 54.0669 174.657C54.693 174.657 55.1648 174.792 55.4823 175.063C55.8027 175.334 55.963 175.759 55.963 176.339V179.63H55.2152ZM53.6574 178.923C54.0372 178.923 54.3413 178.819 54.5698 178.61C54.8013 178.398 54.917 178.102 54.917 177.722V177.298L54.285 177.324C53.7924 177.342 53.4333 177.424 53.2078 177.572C52.9853 177.716 52.874 177.938 52.874 178.239C52.874 178.457 52.9393 178.626 53.0698 178.747C53.2004 178.864 53.3963 178.923 53.6574 178.923Z" fill="white"/>
<path d="M58.5445 179.63L56.6751 174.745H57.7789L58.7804 177.585C58.9525 178.062 59.0563 178.448 59.092 178.742H59.1276C59.1543 178.53 59.2581 178.144 59.4391 177.585L60.4406 174.745H61.5533L59.675 179.63H58.5445Z" fill="white"/>
<path d="M65.3811 179.63L65.1719 178.95H65.1363C64.8989 179.247 64.6601 179.45 64.4197 179.559C64.1794 179.665 63.8708 179.718 63.4939 179.718C63.0103 179.718 62.6319 179.589 62.3589 179.33C62.0889 179.07 61.9539 178.704 61.9539 178.23C61.9539 177.726 62.1423 177.346 62.5192 177.09C62.896 176.834 63.4702 176.694 64.2417 176.671L65.0918 176.644V176.384C65.0918 176.071 65.0176 175.839 64.8693 175.686C64.7239 175.53 64.4969 175.452 64.1883 175.452C63.9361 175.452 63.6942 175.488 63.4628 175.562C63.2313 175.636 63.0088 175.723 62.7951 175.823L62.4569 175.081C62.7239 174.942 63.0162 174.838 63.3337 174.767C63.6512 174.693 63.9509 174.657 64.2328 174.657C64.8589 174.657 65.3307 174.792 65.6482 175.063C65.9686 175.334 66.1289 175.759 66.1289 176.339V179.63H65.3811ZM63.8233 178.923C64.2031 178.923 64.5073 178.819 64.7357 178.61C64.9672 178.398 65.0829 178.102 65.0829 177.722V177.298L64.4509 177.324C63.9583 177.342 63.5993 177.424 63.3738 177.572C63.1512 177.716 63.0399 177.938 63.0399 178.239C63.0399 178.457 63.1052 178.626 63.2358 178.747C63.3663 178.864 63.5622 178.923 63.8233 178.923Z" fill="white"/>
<path d="M71.4522 177.876C71.4522 178.451 71.243 178.901 70.8246 179.228C70.4062 179.555 69.8291 179.718 69.0932 179.718C68.3573 179.718 67.7549 179.605 67.2861 179.378V178.38C67.5828 178.518 67.8974 178.627 68.2297 178.707C68.565 178.786 68.8766 178.826 69.1644 178.826C69.5858 178.826 69.8958 178.747 70.0947 178.588C70.2964 178.429 70.3973 178.215 70.3973 177.947C70.3973 177.706 70.3053 177.501 70.1214 177.333C69.9374 177.165 69.5576 176.967 68.9819 176.737C68.3885 176.498 67.9701 176.226 67.7268 175.92C67.4834 175.614 67.3618 175.245 67.3618 174.816C67.3618 174.277 67.5547 173.853 67.9404 173.544C68.3262 173.234 68.8439 173.08 69.4938 173.08C70.1169 173.08 70.7371 173.215 71.3543 173.486L71.016 174.347C70.4374 174.106 69.9211 173.985 69.4671 173.985C69.1229 173.985 68.8617 174.06 68.6837 174.21C68.5057 174.358 68.4167 174.554 68.4167 174.798C68.4167 174.966 68.4523 175.11 68.5235 175.231C68.5947 175.349 68.7119 175.46 68.8751 175.566C69.0383 175.672 69.3321 175.812 69.7564 175.986C70.2341 176.183 70.5843 176.367 70.8068 176.538C71.0293 176.709 71.1925 176.902 71.2964 177.117C71.4003 177.332 71.4522 177.585 71.4522 177.876Z" fill="white"/>
<path d="M74.5856 179.718C73.8409 179.718 73.2741 179.503 72.8854 179.073C72.4996 178.641 72.3068 178.021 72.3068 177.214C72.3068 176.392 72.5085 175.761 72.9121 175.319C73.3186 174.877 73.9046 174.657 74.6702 174.657C75.1895 174.657 75.6568 174.752 76.0723 174.944L75.7562 175.778C75.3141 175.608 74.9491 175.522 74.6613 175.522C73.8097 175.522 73.3839 176.083 73.3839 177.205C73.3839 177.753 73.4892 178.165 73.6999 178.442C73.9135 178.716 74.2251 178.853 74.6346 178.853C75.1005 178.853 75.5411 178.738 75.9565 178.508V179.413C75.7696 179.522 75.5693 179.6 75.3556 179.648C75.145 179.695 74.8883 179.718 74.5856 179.718Z" fill="white"/>
<path d="M79.6107 174.657C79.8214 174.657 79.995 174.671 80.1315 174.701L80.0291 175.668C79.8808 175.633 79.7265 175.615 79.5662 175.615C79.1478 175.615 78.8081 175.75 78.547 176.021C78.2888 176.292 78.1597 176.644 78.1597 177.077V179.63H77.1138V174.745H77.9327L78.0707 175.606H78.1241C78.2873 175.315 78.4995 175.084 78.7606 174.913C79.0247 174.742 79.3081 174.657 79.6107 174.657Z" fill="white"/>
<path d="M82.0944 179.63H81.0484V174.745H82.0944V179.63ZM80.9861 173.451C80.9861 173.265 81.0365 173.122 81.1374 173.022C81.2413 172.922 81.3881 172.872 81.578 172.872C81.762 172.872 81.9044 172.922 82.0053 173.022C82.1092 173.122 82.1611 173.265 82.1611 173.451C82.1611 173.627 82.1092 173.767 82.0053 173.87C81.9044 173.971 81.762 174.021 81.578 174.021C81.3881 174.021 81.2413 173.971 81.1374 173.87C81.0365 173.767 80.9861 173.627 80.9861 173.451Z" fill="white"/>
<path d="M86.0913 179.718C85.4682 179.718 84.9845 179.496 84.6403 179.051H84.578C84.6195 179.464 84.6403 179.714 84.6403 179.802V181.803H83.5943V174.745H84.44C84.4637 174.836 84.5127 175.054 84.5869 175.399H84.6403C84.9667 174.904 85.4563 174.657 86.1091 174.657C86.7233 174.657 87.2011 174.877 87.5423 175.319C87.8865 175.761 88.0586 176.381 88.0586 177.179C88.0586 177.977 87.8835 178.599 87.5334 179.047C87.1862 179.494 86.7055 179.718 86.0913 179.718ZM85.8376 175.505C85.4222 175.505 85.118 175.625 84.9251 175.867C84.7352 176.108 84.6403 176.494 84.6403 177.024V177.179C84.6403 177.773 84.7352 178.205 84.9251 178.473C85.1151 178.738 85.4251 178.87 85.8554 178.87C86.2174 178.87 86.4963 178.723 86.6922 178.429C86.888 178.134 86.9859 177.714 86.9859 177.17C86.9859 176.622 86.888 176.208 86.6922 175.929C86.4993 175.646 86.2144 175.505 85.8376 175.505Z" fill="white"/>
<path d="M91.1075 178.879C91.3627 178.879 91.6179 178.839 91.873 178.76V179.542C91.7573 179.592 91.6075 179.633 91.4235 179.665C91.2425 179.701 91.0541 179.718 90.8582 179.718C89.8672 179.718 89.3716 179.2 89.3716 178.164V175.531H88.6995V175.072L89.4206 174.692L89.7767 173.658H90.422V174.745H91.8241V175.531H90.422V178.146C90.422 178.396 90.4844 178.582 90.609 178.702C90.7366 178.82 90.9027 178.879 91.1075 178.879Z" fill="white"/>
<path d="M384.743 45.912C383.74 45.912 382.951 46.2671 382.376 46.9773C381.801 47.6875 381.514 48.6676 381.514 49.9177C381.514 51.2262 381.789 52.2161 382.34 52.8874C382.895 53.5586 383.696 53.8943 384.743 53.8943C385.196 53.8943 385.635 53.8505 386.059 53.7629C386.482 53.6705 386.923 53.5538 387.381 53.4127V54.9085C386.543 55.2246 385.593 55.3827 384.532 55.3827C382.968 55.3827 381.767 54.9109 380.929 53.9672C380.092 53.0187 379.673 51.664 379.673 49.9031C379.673 48.7941 379.875 47.8237 380.279 46.9919C380.688 46.1601 381.278 45.5229 382.047 45.0802C382.817 44.6376 383.721 44.4163 384.758 44.4163C385.849 44.4163 386.858 44.6449 387.783 45.1021L387.155 46.5541C386.794 46.3839 386.412 46.2355 386.008 46.109C385.608 45.9777 385.187 45.912 384.743 45.912Z" fill="white"/>
<path d="M395.842 52.3401C395.842 53.2887 395.499 54.0329 394.812 54.5728C394.125 55.1128 393.178 55.3827 391.97 55.3827C390.762 55.3827 389.773 55.1954 389.003 54.8209V53.1719C389.49 53.4005 390.007 53.5805 390.552 53.7119C391.103 53.8432 391.614 53.9089 392.087 53.9089C392.778 53.9089 393.287 53.7775 393.614 53.5148C393.945 53.2522 394.111 52.8995 394.111 52.4569C394.111 52.058 393.96 51.7199 393.658 51.4427C393.356 51.1654 392.732 50.8371 391.787 50.4577C390.813 50.0637 390.126 49.6137 389.727 49.1078C389.327 48.602 389.127 47.9939 389.127 47.2837C389.127 46.3936 389.444 45.6931 390.077 45.1824C390.711 44.6716 391.561 44.4163 392.627 44.4163C393.65 44.4163 394.668 44.64 395.682 45.0875L395.126 46.5103C394.176 46.1115 393.329 45.912 392.584 45.912C392.018 45.912 391.59 46.0361 391.298 46.2841C391.005 46.5273 390.859 46.8508 390.859 47.2546C390.859 47.5318 390.918 47.7702 391.034 47.9696C391.151 48.1642 391.344 48.349 391.612 48.5241C391.88 48.6992 392.362 48.9303 393.058 49.2173C393.843 49.5432 394.417 49.8472 394.783 50.1293C395.148 50.4115 395.416 50.7301 395.587 51.0852C395.757 51.4402 395.842 51.8586 395.842 52.3401Z" fill="white"/>
<path d="M404.07 52.3401C404.07 53.2887 403.726 54.0329 403.039 54.5728C402.353 55.1128 401.405 55.3827 400.197 55.3827C398.989 55.3827 398 55.1954 397.231 54.8209V53.1719C397.718 53.4005 398.234 53.5805 398.78 53.7119C399.33 53.8432 399.841 53.9089 400.314 53.9089C401.006 53.9089 401.515 53.7775 401.841 53.5148C402.172 53.2522 402.338 52.8995 402.338 52.4569C402.338 52.058 402.187 51.7199 401.885 51.4427C401.583 51.1654 400.959 50.8371 400.014 50.4577C399.04 50.0637 398.353 49.6137 397.954 49.1078C397.554 48.602 397.355 47.9939 397.355 47.2837C397.355 46.3936 397.671 45.6931 398.305 45.1824C398.938 44.6716 399.788 44.4163 400.855 44.4163C401.878 44.4163 402.896 44.64 403.909 45.0875L403.354 46.5103C402.404 46.1115 401.556 45.912 400.811 45.912C400.246 45.912 399.817 46.0361 399.525 46.2841C399.233 46.5273 399.086 46.8508 399.086 47.2546C399.086 47.5318 399.145 47.7702 399.262 47.9696C399.379 48.1642 399.571 48.349 399.839 48.5241C400.107 48.6992 400.589 48.9303 401.286 49.2173C402.07 49.5432 402.645 49.8472 403.01 50.1293C403.375 50.4115 403.643 50.7301 403.814 51.0852C403.984 51.4402 404.07 51.8586 404.07 52.3401Z" fill="white"/>
<path d="M53.8529 124.159H15.4476V149.808H53.8529V124.159Z" fill="#9071AF"/>
<path d="M28.0909 135.321C28.0909 136.434 27.7255 137.288 26.9949 137.882C26.2642 138.475 25.2242 138.772 23.8749 138.772H22.7643V142.763H21.018V132.096H24.0941C25.4288 132.096 26.4274 132.368 27.0899 132.913C27.7572 133.458 28.0909 134.26 28.0909 135.321ZM22.7643 137.305H23.6923C24.5885 137.305 25.2461 137.15 25.6651 136.838C26.084 136.527 26.2934 136.04 26.2934 135.379C26.2934 134.766 26.1059 134.309 25.7308 134.007C25.3557 133.706 24.7712 133.555 23.9772 133.555H22.7643V137.305Z" fill="white"/>
<path d="M38.649 142.763H36.8954V137.955H31.9707V142.763H30.2244V132.096H31.9707V136.459H36.8954V132.096H38.649V142.763Z" fill="white"/>
<path d="M48.535 135.321C48.535 136.434 48.1696 137.288 47.439 137.882C46.7083 138.475 45.6683 138.772 44.319 138.772H43.2084V142.763H41.4621V132.096H44.5382C45.8729 132.096 46.8715 132.368 47.534 132.913C48.2013 133.458 48.535 134.26 48.535 135.321ZM43.2084 137.305H44.1364C45.0326 137.305 45.6902 137.15 46.1092 136.838C46.5281 136.527 46.7375 136.04 46.7375 135.379C46.7375 134.766 46.55 134.309 46.1749 134.007C45.7998 133.706 45.2153 133.555 44.4213 133.555H43.2084V137.305Z" fill="white"/>
</svg>
